<svg width="95" height="90" viewBox="0 0 95 90" fill="none" xmlns="http://www.w3.org/2000/svg">
<path d="M42.447 89.7399C52.817 89.7399 61.897 87.8799 69.697 84.1599C77.497 80.4399 83.567 75.2399 87.927 68.5399C92.277 61.8499 94.457 54.0699 94.457 45.2099C94.457 36.3499 92.277 28.4699 87.927 21.8199C83.577 15.1699 77.497 9.98993 69.697 6.25993C61.897 2.53993 52.817 0.67993 42.447 0.679929L0.167023 0.679928L0.167019 89.7399L42.447 89.7399ZM20.237 71.9299L20.237 18.4899L43.987 18.4899C50.007 18.4899 55.287 19.5999 59.837 21.8199C64.387 24.0399 67.887 27.1499 70.347 31.1399C72.797 35.1399 74.027 39.8299 74.027 45.2099C74.027 50.5899 72.797 55.1799 70.347 59.2199C67.897 63.2599 64.387 66.3899 59.837 68.5999C55.287 70.8199 49.997 71.9299 43.987 71.9299L20.237 71.9299Z" fill="#D2E7FA"/>
</svg>
