<svg width="90" height="94" viewBox="0 0 90 94" fill="none" xmlns="http://www.w3.org/2000/svg">
<path d="M7.40266 13.4099C3.96265 17.5299 2.23266 22.5199 2.23266 28.3699C2.23266 35.8099 4.82265 41.6099 10.0127 45.7699C15.1927 49.9299 23.5727 52.6399 35.1327 53.8999L53.0627 55.9199C59.3927 56.6299 63.7327 57.7599 66.0627 59.2999C68.3927 60.8399 69.5627 63.0399 69.5627 65.8899C69.5627 69.5299 67.5227 72.3599 63.4427 74.3799C59.3627 76.3999 53.8027 77.4099 46.7627 77.4099C41.9327 77.4099 37.6827 76.7999 33.9927 75.5699C30.3127 74.3399 27.3827 72.5999 25.2027 70.3399C23.0227 68.0799 21.7027 65.4499 21.2227 62.4399L0.792653 62.4399C1.11265 68.6099 3.20266 74.0199 7.08265 78.6499C10.9627 83.2799 16.2627 86.8899 22.9927 89.4599C29.7227 92.0299 37.5227 93.3199 46.3827 93.3199C55.2427 93.3199 62.6927 92.0899 69.1827 89.6399C75.6727 87.1899 80.7227 83.7199 84.3227 79.2499C87.9227 74.7799 89.7227 69.5699 89.7227 63.6299C89.7227 58.6399 88.6727 54.5299 86.5727 51.2799C84.4727 48.0299 80.9927 45.4399 76.1227 43.4999C71.2527 41.5599 64.7027 40.1599 56.4727 39.2799L37.8327 37.0199C32.1327 36.3099 28.1527 35.2199 25.9027 33.7499C23.6427 32.2899 22.5227 30.2099 22.5227 27.5199C22.5227 24.0399 24.4227 21.3499 28.2227 19.4399C32.0227 17.5399 37.1327 16.5899 43.5427 16.5899C48.1327 16.5899 52.1327 17.1199 55.5327 18.1899C58.9327 19.2599 61.6027 20.7599 63.5527 22.6999C65.4927 24.6399 66.6627 26.9199 67.0527 29.5299L87.4727 29.5299C87.1527 23.7499 85.0927 18.6999 81.3027 14.3899C77.5027 10.0799 72.3927 6.70993 65.9827 4.29993C59.5727 1.88993 52.2427 0.67993 44.0127 0.67993C35.7827 0.679929 28.1827 1.76993 21.9227 3.94993C15.6727 6.12993 10.8227 9.27993 7.37266 13.3899L7.40266 13.4099Z" fill="#D2E7FA"/>
</svg>
