<?xml version="1.0" encoding="UTF-8"?>
<svg width="40" height="40" viewBox="0 0 40 40" fill="none" xmlns="http://www.w3.org/2000/svg">
    <!-- Amphora body -->
    <path d="M15 12 C15 8, 25 8, 25 12 L28 28 C28 32, 12 32, 12 28 L15 12"
        fill="currentColor" />

    <!-- Neck and rim -->
    <path d="M18 12 C18 10, 22 10, 22 12 L22 8 C22 6, 18 6, 18 8 L18 12"
        fill="currentColor" />
    <path d="M17 8 C17 6, 23 6, 23 8"
        stroke="currentColor" stroke-width="1" fill="none" />

    <!-- Handles -->
    <path d="M15 15 C10 15, 10 20, 15 20"
        stroke="currentColor" stroke-width="2" fill="none" />
    <path d="M25 15 C30 15, 30 20, 25 20"
        stroke="currentColor" stroke-width="2" fill="none" />

    <!-- Decorative patterns -->
    <path d="M15 24 H25" stroke="currentColor" stroke-width="1" opacity="0.5" />
    <path d="M14 28 H26" stroke="currentColor" stroke-width="1" opacity="0.5" />
</svg> 