<?xml version="1.0" encoding="UTF-8"?>
<svg width="800" height="600" viewBox="0 0 800 600" fill="none" xmlns="http://www.w3.org/2000/svg">
    <!-- Background -->
    <rect width="800" height="600" fill="#2C3E50" />

    <!-- Road grid -->
    <path d="M100 100 H700 M100 200 H700 M100 300 H700 M100 400 H700 M100 500 H700"
        stroke="#95A5A6" stroke-width="4" stroke-opacity="0.3" />
    <path
        d="M100 100 V500 M200 100 V500 M300 100 V500 M400 100 V500 M500 100 V500 M600 100 V500 M700 100 V500"
        stroke="#95A5A6" stroke-width="4" stroke-opacity="0.3" />

    <!-- Buildings -->
    <rect x="50" y="50" width="100" height="200" fill="#34495E" opacity="0.5" />
    <rect x="650" y="50" width="100" height="150" fill="#34495E" opacity="0.5" />
    <rect x="50" y="350" width="100" height="200" fill="#34495E" opacity="0.5" />
    <rect x="650" y="300" width="100" height="250" fill="#34495E" opacity="0.5" />

    <!-- Windows -->
    <rect x="70" y="70" width="20" height="20" fill="#F1C40F" opacity="0.3" />
    <rect x="110" y="70" width="20" height="20" fill="#F1C40F" opacity="0.3" />
    <rect x="70" y="110" width="20" height="20" fill="#F1C40F" opacity="0.3" />
    <rect x="110" y="110" width="20" height="20" fill="#F1C40F" opacity="0.3" />

    <rect x="670" y="70" width="20" height="20" fill="#F1C40F" opacity="0.3" />
    <rect x="710" y="70" width="20" height="20" fill="#F1C40F" opacity="0.3" />
    <rect x="670" y="110" width="20" height="20" fill="#F1C40F" opacity="0.3" />
    <rect x="710" y="110" width="20" height="20" fill="#F1C40F" opacity="0.3" />

    <!-- Traffic lights -->
    <circle cx="100" cy="80" r="5" fill="#E74C3C" />
    <circle cx="700" cy="80" r="5" fill="#2ECC71" />
    <circle cx="100" cy="520" r="5" fill="#F1C40F" />
    <circle cx="700" cy="520" r="5" fill="#E74C3C" />

    <!-- Road markings -->
    <path d="M400 50 V550" stroke="#F1C40F" stroke-width="4" stroke-dasharray="20 20" />
    <path d="M50 300 H750" stroke="#F1C40F" stroke-width="4" stroke-dasharray="20 20" />
</svg> 