<svg width="90" height="95" viewBox="0 0 90 95" fill="none" xmlns="http://www.w3.org/2000/svg">
<path id="Vector" d="M89.06 52.5515C89.06 42.1815 87.2 33.1015 83.48 25.3015C79.76 17.5015 74.56 11.4315 67.86 7.0715C61.17 2.7215 53.39 0.541504 44.53 0.541504C35.67 0.541504 27.79 2.7215 21.14 7.0715C14.49 11.4215 9.31 17.5015 5.58 25.3015C1.86 33.1015 0 42.1815 0 52.5515V94.8315H89.06V52.5515ZM71.25 74.7615H17.81V51.0115C17.81 44.9915 18.92 39.7115 21.14 35.1615C23.36 30.6115 26.47 27.1115 30.46 24.6515C34.46 22.2015 39.15 20.9715 44.53 20.9715C49.91 20.9715 54.5 22.2015 58.54 24.6515C62.58 27.1015 65.71 30.6115 67.92 35.1615C70.14 39.7115 71.25 45.0015 71.25 51.0115V74.7615Z" fill="#D2E7FA"/>
</svg>
