<svg width="93" height="90" viewBox="0 0 93 90" fill="none" xmlns="http://www.w3.org/2000/svg">
<path d="M12.73 82.5971C16.85 86.0371 21.84 87.7671 27.69 87.7671C35.13 87.7671 40.93 85.1771 45.09 79.9871C49.25 74.8071 51.96 66.4271 53.22 54.8671L55.24 36.9371C55.95 30.6071 57.08 26.2671 58.62 23.9371C60.16 21.6071 62.36 20.4371 65.21 20.4371C68.85 20.4371 71.68 22.4771 73.7 26.5571C75.72 30.6371 76.73 36.1971 76.73 43.2371C76.73 48.0671 76.12 52.3171 74.89 56.0071C73.66 59.6871 71.92 62.6171 69.66 64.7971C67.4 66.9771 64.77 68.2971 61.76 68.7771V89.2071C67.93 88.8871 73.34 86.7971 77.97 82.9171C82.6 79.0371 86.21 73.7371 88.78 67.0071C91.35 60.2771 92.64 52.4771 92.64 43.6171C92.64 34.7571 91.41 27.3071 88.96 20.8171C86.51 14.3271 83.04 9.2771 78.57 5.6771C74.1 2.0771 68.89 0.2771 62.95 0.2771C57.96 0.2771 53.85 1.3271 50.6 3.4271C47.35 5.5271 44.76 9.0071 42.82 13.8771C40.88 18.7471 39.48 25.2971 38.6 33.5271L36.34 52.1671C35.63 57.8671 34.54 61.8471 33.07 64.0971C31.61 66.3571 29.53 67.4771 26.84 67.4771C23.36 67.4771 20.67 65.5771 18.76 61.7771C16.86 57.9771 15.91 52.8671 15.91 46.4571C15.91 41.8671 16.44 37.8671 17.51 34.4671C18.58 31.0671 20.08 28.3971 22.02 26.4471C23.96 24.5071 26.24 23.3371 28.85 22.9471V2.5271C23.07 2.8471 18.02 4.9071 13.71 8.6971C9.4 12.4971 6.03 17.6071 3.62 24.0171C1.21 30.4271 0 37.7571 0 45.9871C0 54.2171 1.09 61.8171 3.27 68.0771C5.45 74.3271 8.6 79.1771 12.71 82.6271L12.73 82.5971Z" fill="#D2E7FA"/>
</svg>
