<svg width="90" height="87" viewBox="0 0 90 87" fill="none" xmlns="http://www.w3.org/2000/svg">
<path id="Vector" d="M89.07 23.7958V0.165771L54.62 27.9458C54.05 24.5158 53.1 21.3458 51.72 18.4558C49.39 13.5458 46.16 9.70576 42.04 6.93576C37.92 4.16576 33.13 2.77579 27.67 2.77579C22.21 2.77579 17.3 4.16576 13.18 6.93576C9.06 9.70576 5.84 13.5458 3.5 18.4558C1.17 23.3658 0 29.0658 0 35.5558V86.2658H89.07V66.0758H55.23V50.6058L89.07 23.7958ZM39.55 66.0758H15.92V37.9358C15.92 33.4258 16.95 29.8458 19.01 27.1858C21.07 24.5358 23.96 23.2058 27.68 23.2058C31.4 23.2058 34.31 24.5358 36.41 27.1858C38.51 29.8358 39.56 33.4158 39.56 37.9358V66.0758H39.55Z" fill="#D2E7FA"/>
</svg>
