<svg width="90" height="95" viewBox="0 0 90 95" fill="none" xmlns="http://www.w3.org/2000/svg">
<path d="M61.35 0.610107C44.54 0.610107 42.7 19.3301 42.5 23.4201C42.47 24.0501 42.42 24.6901 42.35 25.3201L39 55.5001C38.63 57.5301 38.21 59.6801 37.76 61.9601C35.91 71.2201 28.32 71.4001 28.32 71.4001C17.89 71.4001 14.16 60.8401 14.16 47.8001C14.16 34.7601 17.89 24.2001 28.32 24.2001H37.76L28.32 0.600098H0L7.06 18.2501C2.82 26.3401 0 36.6101 0 47.8001C0 73.8601 15.28 94.9901 28.32 94.9901C45.13 94.9901 46.97 76.2701 47.17 72.1801C47.2 71.5501 47.25 70.9101 47.32 70.2801L50.67 40.1001C51.04 38.0701 51.45 35.9201 51.91 33.6401C53.76 24.3801 61.35 24.2001 61.35 24.2001C71.78 24.2001 75.51 34.7601 75.51 47.8001C75.51 60.8401 71.78 71.4001 61.35 71.4001H51.91L61.35 95.0001H89.66L82.6 77.3501C86.84 69.2601 89.66 58.9901 89.66 47.8101C89.66 21.7501 74.38 0.620117 61.35 0.620117V0.610107Z" fill="#D2E7FA"/>
</svg>
