<svg width="87" height="90" viewBox="0 0 87 90" fill="none" xmlns="http://www.w3.org/2000/svg">
<g clip-path="url(#clip0_9909_7758)">
<path d="M63.2059 89.7499L86.8359 89.7499L59.0559 55.2999C62.4859 54.7299 65.6559 53.7799 68.5459 52.3999C73.4559 50.0699 77.2959 46.8399 80.0659 42.7199C82.8359 38.5999 84.2259 33.8099 84.2259 28.3499C84.2259 22.8899 82.8359 17.9799 80.0659 13.8599C77.2959 9.73993 73.4559 6.51993 68.5459 4.17993C63.6359 1.84993 57.9359 0.67993 51.4459 0.67993L0.735931 0.679928L0.735928 89.7499L20.9259 89.7499L20.9259 55.9099L36.3959 55.9099L63.2059 89.7499ZM20.9259 40.2299L20.9259 16.5999L49.0659 16.5999C53.5759 16.5999 57.1559 17.6299 59.8159 19.6899C62.4659 21.7499 63.7959 24.6399 63.7959 28.3599C63.7959 32.0799 62.4659 34.9899 59.8159 37.0899C57.1659 39.1899 53.5859 40.2399 49.0659 40.2399L20.9259 40.2399L20.9259 40.2299Z" fill="#D2E7FA"/>
</g>
<defs>
<clipPath id="clip0_9909_7758">
<rect width="86.1" height="89.07" fill="white" transform="translate(0.734375 0.679932)"/>
</clipPath>
</defs>
</svg>
