<svg width="95" height="91" viewBox="0 0 95 91" fill="none" xmlns="http://www.w3.org/2000/svg">
<g clip-path="url(#clip0_9909_7754)">
<path d="M94.3884 62.0299C94.3884 45.2199 75.6684 43.3799 71.5784 43.1799C70.9484 43.1499 70.3085 43.0999 69.6785 43.0299L39.4985 39.6799C37.4685 39.3099 35.3184 38.8899 33.0385 38.4399C23.7784 36.5899 23.5984 28.9999 23.5984 28.9999C23.5984 18.5699 34.1584 14.8399 47.1984 14.8399C60.2384 14.8399 70.7985 18.5699 70.7985 28.9999L70.7985 38.4399L94.3984 28.9999L94.3984 0.679932L76.7485 7.73993C68.6585 3.49993 58.3884 0.67993 47.1984 0.67993C21.1384 0.679928 0.00842218 15.9599 0.00842161 28.9999C0.00842088 45.8099 18.7284 47.6499 22.8184 47.8499C23.4484 47.8799 24.0884 47.9299 24.7184 47.9999L54.8984 51.3499C56.9284 51.7199 59.0785 52.1299 61.3585 52.5899C70.6185 54.4399 70.7985 62.0299 70.7985 62.0299C70.7985 72.4599 60.2384 76.1899 47.1984 76.1899C34.1584 76.1899 23.5984 72.4599 23.5984 62.0299L23.5984 52.5899L-0.00152856 62.0299L-0.0015298 90.3399L17.6484 83.2799C25.7384 87.5199 36.0085 90.3399 47.1885 90.3399C73.2485 90.3399 94.3784 75.0599 94.3784 62.0299L94.3884 62.0299Z" fill="#D2E7FA"/>
</g>
<defs>
<clipPath id="clip0_9909_7754">
<rect width="94.4" height="89.66" fill="white" transform="translate(0 0.679932)"/>
</clipPath>
</defs>
</svg>
