<svg width="329" height="234" viewBox="0 0 329 234" fill="none" xmlns="http://www.w3.org/2000/svg">
    <path
        d="M105.528 218.689C105.528 218.689 121.347 201.599 115.829 167.967C110.311 134.338 99.826 134.154 74.9908 123.492C50.1589 112.834 45.5605 92.8033 32.6813 88.2092C19.8056 83.6151 33.4171 63.2172 56.9613 64.3198C80.5055 65.4224 88.5989 59.3581 81.2413 51.0887C73.8837 42.8193 48.4354 37.4459 25.3203 26.8317C2.45055 16.3231 17.8129 16.2176 8.69426 43.2242C0.389745 67.8147 15.9462 48.1451 39.6744 50.7178C63.4026 53.2905 69.8405 56.5982 91.1808 62.1112C112.518 67.6241 125.026 61.5599 144.159 73.1371C163.292 84.7143 191.435 82.5091 201.919 91.8811C212.404 101.253 241.102 97.9453 254.897 96.2915C268.692 94.6376 274.507 93.0586 253.793 84.163C207.475 64.2721 219.765 62.5842 241.653 63.2138C260.967 63.7685 246.62 66.8891 253.793 71.2994C260.967 75.7098 263.542 70.5644 284.327 72.7696C305.112 74.9747 310.079 73.3209 320.012 73.8721C329.944 74.4234 329.944 76.0773 323.69 70.9319C320.563 67.9917 318.356 69.278 317.068 66.5216C315.781 63.7651 310.998 61.9274 305.296 59.906C299.594 57.8846 303.457 61.5599 297.939 55.8632C292.421 50.1665 295.548 57.5171 289.478 56.2307C283.408 54.9444 286.718 52.9229 283.224 52.1879C279.729 51.4528 274.395 50.7178 271.452 46.3074C268.509 41.8971 271.452 42.6321 267.773 41.162C264.094 39.6919 262.622 27.7472 256.369 25.3582C250.115 22.9693 251.218 19.6615 246.804 18.0076C242.389 16.3537 240.55 13.5973 238.71 12.1271C236.871 10.657 221.972 2.02006 216.27 1.46877C210.568 0.917475 216.27 3.67395 213.327 2.57136C210.384 1.46877 212.407 6.61419 207.441 4.77654C202.474 2.93889 203.946 1.285 200.083 2.20383C196.22 3.12265 197.508 4.22524 194.197 4.40901C190.886 4.59277 191.99 9.55443 183.161 12.8622C179.097 14.3834 176.358 15.4417 174.045 16.3503C173.443 16.5885 172.315 18.1505 171.756 18.3751C169.798 19.1578 166.507 17.4155 164.399 18.7427C161.088 20.8253 159.249 26.0933 151.155 27.1959C143.062 28.2984 141.039 29.2173 137.912 31.2387C134.785 33.2601 122.645 38.038 113.264 36.7516C103.883 35.4653 102.963 34.7302 107.746 34.5465C112.528 34.3627 113.448 33.8114 112.896 31.6062C112.344 29.401 111.056 28.1147 118.414 27.1959C125.772 26.277 130.922 25.1744 122.829 23.8881C114.735 22.6017 110.505 20.7641 104.803 18.0076C99.1004 15.2511 100.756 17.2726 98.1807 16.905C95.6056 16.5375 94.8698 18.5589 90.0874 19.1102C85.305 19.6615 87.3283 22.418 80.8904 24.2556C74.4526 26.0933 74.4526 25.1744 73.9007 26.4608C73.3489 27.7472 63.2323 28.8497 73.5329 29.401C83.8335 29.9523 97.9968 31.0549 106.642 31.2387C115.287 31.4225 118.046 32.1575 127.611 28.666C129.818 27.5634 127.427 25.9095 131.658 24.9907C135.888 24.0719 134.785 24.6231 140.487 24.9907C144.213 25.2323 157.218 21.5162 163.663 23.5206C166.402 24.3713 167.621 22.241 167.71 22.6392C167.822 23.1462 168.418 23.1564 169.256 22.9318C170.053 22.7208 170.738 21.7306 171.756 21.3154C172.673 20.9444 173.923 21.1418 174.699 20.9479C202.474 13.9648 184.816 15.4349 198.244 7.71678C201.187 5.69536 199.899 2.57136 208.544 9.1869C217.189 15.8024 218.661 13.4135 221.42 17.2726C223.627 18.9264 224.179 13.9648 230.617 22.0504C237.055 30.1361 245.884 33.0763 250.85 38.5893C255.817 44.1022 255.817 50.3502 254.161 55.8632C252.506 61.3761 253.977 67.4404 257.472 69.8293C260.967 72.2183 262.255 70.3806 260.783 65.419C259.312 60.4573 258.944 60.0898 247.172 52.9229C235.399 45.7561 242.757 46.6749 238.71 43.7347C234.664 40.7945 229.146 37.6705 226.202 34.1789C223.259 30.6874 218.262 24.0719 227.674 29.7686C237.086 35.4653 238.25 36.6904 242.389 38.2218C246.528 39.7531 241.439 37.1804 237.607 37.8542C233.894 38.5076 222.554 26.6446 219.213 22.7855C215.871 18.9264 210.046 19.0489 204.866 14.3323C199.685 9.61568 200.236 13.4135 198.612 18.0076C196.987 22.6017 183.804 21.4991 184.264 21.3154C184.724 21.1316 174.587 24.5177 174.699 29.0335C174.812 33.5494 174.495 35.2679 173.964 37.1192C173.432 38.9704 173.299 38.6676 169.917 38.5893C166.535 38.511 166.494 38.2081 165.503 38.5893C164.511 38.9704 165.206 40.0458 165.135 41.5295C165.063 43.0133 165.85 41.9753 169.181 41.8971C172.513 41.8188 172.656 40.2296 173.964 41.162C175.272 42.0944 173.851 43.9049 173.964 45.5724C174.076 47.2399 175.892 49.7445 175.435 51.8204C175.04 53.835 176.512 53.1237 176.171 55.4957C176.144 56.765 176.512 57.9016 176.539 60.2735C176.566 62.6455 176.093 65.3577 176.171 65.7865M176.171 65.7865C176.249 66.2153 173.412 65.9873 172.86 66.8891C172.308 67.7909 174.832 67.1954 175.803 67.2566C176.777 67.3179 177.721 65.9328 176.171 65.7865ZM176.171 65.7865C174.621 65.6402 174.148 65.4088 174.332 64.3164C174.516 63.224 174.516 59.6338 174.332 58.8034C174.148 57.9731 172.887 55.5365 172.86 54.7606C172.833 53.9847 172.359 52.5963 171.389 52.9229C170.418 53.2496 171.256 53.8588 169.181 54.0255C167.107 54.1923 167.683 57.9016 168.813 58.0684C169.944 58.2351 171.048 58.1092 171.389 56.5982C171.729 55.0873 170.888 53.9643 168.078 54.0255C167.052 54.1923 166.684 53.6988 166.238 53.2905C165.792 52.8821 165.424 54.3318 164.767 56.5982C164.109 58.8647 162.955 62.1554 162.927 63.2138C162.9 64.2755 162.587 65.7252 161.456 65.7865C160.325 65.8477 159.484 67.0899 161.824 66.8891C164.164 66.6883 165.162 65.9873 163.663 65.7865C162.164 65.5857 160.325 66.1438 160.72 64.3164C161.115 62.4889 161.534 55.7985 162.192 53.2905C162.743 50.6769 163.479 47.9239 163.663 46.6749C163.847 45.426 163.006 39.8382 165.87 40.0594C168.578 39.9641 166.105 43.2004 168.446 44.4698C170.786 45.7391 173.991 45.7187 173.596 39.6919C173.099 38.232 173.885 37.6875 171.389 37.4867C168.892 37.2859 169.26 37.371 167.71 37.4867C166.16 37.6024 164.896 37.582 164.399 36.3841C163.902 35.1862 164.004 31.334 164.399 26.8283C164.794 22.3227 164.688 18.678 164.399 16.905C164.109 15.1286 163.53 13.114 164.767 13.2297C166.003 13.3454 166.579 13.4816 166.974 11.7596C167.369 10.0377 167.052 10.7523 165.87 10.2895C164.688 9.82667 165.264 9.96279 165.135 8.81937C165.005 7.67594 163.057 5.97441 165.135 6.24666C167.212 6.5189 167.001 7.65552 167.71 8.08431C168.418 8.51309 167.209 10.5958 165.87 10.657C164.532 10.7183 164.583 11.2253 164.399 11.7596C164.215 12.2939 165.843 11.8004 166.238 12.1271C166.633 12.4538 167.264 13.325 166.974 15.0674C166.684 16.8097 167.369 17.7354 167.342 18.7427C167.315 19.75 168.05 30.1259 169.181 30.1361C169.733 30.0408 170.152 26.7126 170.285 24.9907C170.418 23.2687 170.363 21.6217 170.285 20.9479C170.207 20.274 170.574 18.3649 170.653 16.905C170.731 15.4451 169.209 13.8491 171.389 13.9648C173.569 14.0805 173.15 13.1685 172.492 12.1271C171.835 11.0858 172.53 11.1164 172.547 10.463C172.567 9.68715 173.507 9.53061 173.48 8.79555C173.453 8.06049 172.734 8.06049 171.293 8.48587C170.166 8.81596 170.23 9.4115 169.852 9.61228C169.093 10.0138 169.522 10.3099 169.846 11.1437C170.333 12.3892 169.995 12.7499 170.285 13.2331C170.574 13.7164 172.833 13.5394 172.86 15.0708C172.887 16.6022 173.623 22.2002 173.596 24.259C173.569 26.3179 174.304 29.5508 176.171 31.6096C178.038 33.6685 187.654 29.2377 190.15 28.6694C192.647 28.1011 193.802 22.4622 199.347 24.9941C204.893 27.526 216.44 38.215 223.995 42.6355C231.55 47.0561 222.745 43.3093 214.798 40.0628C206.851 36.8163 204.562 43.8844 200.083 46.3108C195.604 48.7372 194.998 50.7654 190.15 51.0887C185.303 51.4154 179.598 52.3921 186.472 49.2511C193.345 46.11 193.369 44.6195 195.301 43.7381C197.232 42.8567 199.412 43.0983 200.819 43.7381C202.226 44.3779 210.237 50.4489 217.741 51.0887C225.245 51.7285 225.531 52.0756 226.57 53.6614C227.609 55.2472 230.471 54.9648 233.192 56.6016C235.914 58.2385 235.147 59.3751 237.975 60.2769C240.802 61.1788 242.716 60.6343 243.125 62.1146C243.534 63.5949 243.769 64.5206 247.172 66.525C250.574 68.5294 249.338 68.8765 250.482 72.0379C251.627 75.1993 253.228 75.5975 249.747 76.0807C246.265 76.564 243.714 77.4896 250.115 78.2859C256.515 79.0822 265.317 75.703 258.208 76.0807C254.989 76.0399 253.071 75.703 254.161 77.1833C255.251 78.6637 255.96 82.2675 253.793 84.9014C251.627 87.5354 254.699 87.253 260.047 89.3118C265.395 91.3707 266.891 89.0396 269.244 90.7819C271.598 92.5243 272.201 93.0824 275.13 94.8247C278.06 96.5671 280.083 97.5438 279.545 99.2351C279.007 100.926 275.733 99.2181 275.498 102.175C275.263 105.133 275.052 106.674 272.187 104.013C269.323 101.352 265.589 100.637 269.244 99.6026C272.899 98.5681 274.262 97.6425 275.866 99.2351C277.47 100.828 279.885 101.161 281.752 102.543C283.619 103.925 284.457 105.31 285.431 108.423C286.405 111.537 285.928 111.82 287.638 111.731C289.348 111.643 290.237 114.341 293.524 114.671C296.811 115.001 294.127 116.23 282.488 115.039C276.105 114.583 282.88 116.597 279.913 116.877C276.946 117.156 271.424 116.649 268.141 116.877C264.857 117.105 262.806 113.603 257.84 112.834C252.874 112.061 256.552 115.284 252.322 115.774C248.091 116.264 247.774 117.806 255.265 118.714C262.755 119.623 263.593 118.592 266.669 119.082C269.745 119.572 263.331 116.911 260.047 115.406C256.764 113.899 258.13 109.771 255.265 110.261C252.4 110.751 254.921 112.398 249.011 108.056C243.098 103.714 239.732 100.688 239.814 104.748C239.892 108.808 239.787 110.979 241.653 113.569C243.52 116.158 243.861 116.141 243.861 116.141C243.861 116.141 250.772 117.282 245.332 117.612C239.892 117.942 236.265 118.908 236.503 119.449C236.742 119.99 241.207 120.851 240.918 123.125C240.628 125.398 246.303 126.939 249.011 127.167C251.719 127.395 248.772 124.789 249.011 124.227C249.249 123.666 247.669 121.899 245.332 122.389C242.995 122.88 243.098 125.313 238.342 124.227C233.587 123.142 234.32 124.105 231.721 124.962C229.122 125.82 222.517 127.463 226.202 125.33C229.885 123.196 229.244 121.583 229.513 120.552C229.782 119.521 229.193 118.748 226.938 116.877C224.683 115.005 224.462 113.548 223.627 109.158C222.793 104.768 223.832 103.469 224.731 106.586C225.63 109.703 229.772 117.802 225.099 117.244C220.425 116.686 223.781 120.586 224.363 121.654C224.946 122.723 220.943 121.95 222.156 124.595C223.368 127.239 224.83 127.882 221.052 126.8C217.275 125.718 216.634 124.84 215.166 127.902C213.698 130.969 212.533 136.863 210.016 134.518C207.499 132.173 208.698 134.395 203.394 134.886C202.137 136.271 203.074 138.333 196.404 137.458C189.735 136.584 188.515 137.965 186.839 134.886C185.164 131.806 188.464 127.409 187.943 122.022C187.422 116.632 185.204 116.594 189.415 113.936C193.625 111.279 190.672 106.147 192.358 101.808C194.044 97.4689 194.456 92.5481 195.669 95.1923C196.881 97.8365 196.772 97.765 196.772 97.765C196.772 97.765 195.56 103.312 200.451 104.013C205.342 104.714 203.704 100.896 207.073 102.543C210.442 104.19 206.385 104.153 210.384 107.688C214.383 111.224 210.799 114.494 213.695 116.877C216.59 119.259 211.746 118.592 211.855 121.654C211.964 124.717 210.482 128.147 210.752 129.74C211.021 131.333 211.324 130.822 211.119 131.21C210.915 131.598 211.586 134.13 212.591 130.475C213.596 126.82 210.482 126.623 210.016 122.757C209.549 118.891 206.858 118.537 205.601 121.654C204.344 124.772 203.23 126.939 203.394 129.373C203.557 131.806 205.07 131.19 203.394 133.048C201.718 134.906 199.763 132.976 195.669 133.783C191.574 134.589 189.673 135.917 186.472 138.193C183.27 140.47 182.629 138.857 180.953 138.561C179.278 138.265 179.792 143.584 175.803 141.134C171.814 138.683 166.548 141.797 165.135 138.928C163.721 136.06 164.814 120.899 164.399 118.347C163.983 115.794 166.759 117.751 170.285 125.33C173.81 132.908 173.855 132.714 173.964 134.886C174.073 137.057 173.8 136.968 175.435 138.928C177.07 140.888 177.271 142.794 172.124 142.604C166.977 142.413 164.133 141.607 159.616 141.134C155.1 140.66 146.734 131.54 145.637 117.979C144.54 104.418 141.093 100.3 143.43 97.3975C145.767 94.4946 136.433 79.4736 139.015 80.4911C141.597 81.5086 146.734 90.7445 147.844 93.7222C148.955 96.6998 151.639 99.9327 158.145 105.116C164.651 110.298 162.062 112.061 162.192 113.936C162.321 115.811 161.074 117.2 158.513 119.449C155.944 121.705 155.488 151.571 153.73 123.492C151.673 105.313 156.176 109.243 151.155 104.748C146.134 100.253 142.932 96.87 161.088 94.8247C179.243 92.7795 174.202 111.816 176.907 99.9702C179.611 88.1241 176.532 87.8043 185 88.5767C193.468 89.3492 195.294 85.9666 205.233 90.0469C215.173 94.1271 224.356 90.7445 219.213 88.2092C214.069 85.6739 212.216 86.3341 214.798 84.5339C217.38 82.7337 215.772 81.0662 211.119 79.3885C206.466 77.7108 206.453 78.861 209.28 69.8327C212.107 60.8044 209.764 63.9148 219.949 62.1146C230.133 60.3144 223.498 56.9317 200.083 55.8666C176.668 54.8014 223.498 69.1827 186.839 70.2003C150.178 71.2178 133.609 66.2425 146.369 62.4821C159.129 58.7218 153.352 55.3391 147.105 54.0289C140.858 52.7188 142.071 49.8262 136.805 47.4134C131.538 45.0006 128.214 47.621 123.561 43.3706C118.908 39.1202 116.442 41.373 108.11 38.9602C99.7783 36.5475 103.566 34.6349 97.0737 33.4473C90.5813 32.2596 89.8319 33.2873 87.8767 32.7122C85.9215 32.1371 83.4554 33.5323 79.7834 33.0797C76.1114 32.6271 72.6643 29.612 69.8507 34.5499C67.0371 39.4877 66.1651 41.863 68.747 41.5329C71.329 41.2028 83.2101 41.128 91.1876 45.2082C99.1651 49.2885 101.972 53.1339 105.903 52.5588C109.834 51.9837 113.499 55.7066 119.146 59.5419C124.794 63.3771 117.3 55.8292 125.032 54.0289C132.765 52.2287 122.696 47.866 101.856 43.3706C81.0165 38.8751 79.4087 38.6778 76.4725 40.0628C73.5363 41.4478 70.457 42.9656 79.4155 44.8407C88.374 46.7158 81.8612 51.4188 95.2343 57.3367C108.607 63.2546 115.461 62.8122 111.789 61.3795C108.117 59.9469 111.046 59.627 105.903 58.8068C100.759 57.9867 87.0115 50.0712 89.3482 55.8666C91.6849 61.662 98.7836 65.5074 111.053 67.6275C123.323 69.7477 150.045 82.0463 127.608 75.7132C105.174 69.3801 97.1895 67.5901 87.8733 66.525C78.5605 65.4598 72.4156 69.9178 63.5933 75.7132C54.7711 81.5086 52.6728 82.7813 58.0752 90.7819C63.4775 98.7825 72.654 105.337 74.2618 108.423C75.8696 111.51 84.4262 112.687 94.4951 110.996C104.564 109.305 99.2639 103.989 97.806 97.765C96.3482 91.5408 95.953 84.8776 93.3915 82.3287C90.83 79.7799 83.1999 72.2591 93.0236 77.9184C102.847 83.5777 102.575 88.3079 109.21 88.5767C115.846 88.8456 128.081 86.3477 130.547 89.3118C133.013 92.2759 132.005 96.8836 134.226 99.9702C136.447 103.057 135.071 105.704 137.169 109.893C139.267 114.083 143.777 121.263 141.584 120.184C139.39 119.106 142.428 123.958 141.216 128.27C140.003 132.582 138.63 132.997 163.656 145.176C188.682 157.356 205.833 177.59 235.028 184.505C250.367 188.477 232.933 181.147 230.981 178.257C229.03 175.368 217.482 179.799 198.24 174.95C178.998 170.1 167.574 166.445 202.655 190.018C237.736 213.595 203.374 195.511 165.864 198.839C128.354 202.167 114.221 178.482 88.2378 190.018C76.728 198.124 47.141 214.258 38.5708 201.412C30.004 188.565 32.9129 177.992 27.5344 175.685C22.1559 173.377 22.2445 174.194 32.3168 161.351C42.3892 148.508 36.837 132.663 39.6744 126.436C42.5118 120.208 39.1669 96.4004 24.2235 90.7853C9.28014 85.1703 24.4517 86.232 16.4981 83.4347C8.54439 80.6374 4.83154 66.998 4.72594 82.3321C4.62035 97.6663 10.595 102.774 6.93321 107.692C3.27146 112.613 2.86952 113.062 10.9799 129.376C19.0902 145.69 6.18043 152.513 16.4981 160.616C26.8157 168.722 24.3291 171.625 30.8453 173.48C37.3615 175.338 36.1012 199.802 38.5708 210.236C41.0403 220.67 28.6415 221.156 17.9696 226.407C7.42372 231.597 2.61064 230.004 7.30109 216.116C12.2198 201.548 15.5886 194.027 18.7053 187.817C22.1048 181.045 22.8678 193.561 23.3379 203.712C23.8113 213.938 19.0562 212.424 15.3944 215.385C11.7327 218.345 9.49133 212.057 22.3841 190.393C27.4288 183.675 28.9889 185.839 29.0059 193.7C29.023 201.562 30.7057 203.484 33.7884 207.299C36.871 211.117 44.9303 219.043 29.0059 225.308C13.0816 231.576 4.21841 235.704 3.62231 230.821C3.02621 225.941 2.99215 218.55 1.41504 214.65C-0.162073 210.75 3.12499 207.663 5.09382 203.624C6.58577 200.564 12.557 186.153 12.0835 192.965C11.5998 199.925 8.08794 206.394 7.72688 209.681C7.26362 213.904 5.03932 209.678 4.35806 206.564C3.87778 204.379 2.01114 202.623 4.35806 196.273C6.70499 189.923 13.538 181.919 15.7623 177.897C17.9866 173.874 21.6313 167.83 22.0162 177.529C22.4011 187.228 28.7436 182.654 35.9956 170.546C43.2476 158.435 43.9493 155.947 49.6071 165.033C55.265 174.119 56.4572 174.817 61.0114 169.811C65.5656 164.809 69.946 164.645 77.5659 171.649C85.1858 178.652 89.4436 141.123 97.7992 151.802C106.155 162.481 116.547 176.41 142.316 184.88C168.084 193.353 233.907 203.852 221.781 193.333C209.658 182.814 201.163 182.899 196.03 178.632C190.896 174.364 190.617 172.731 185.361 175.692C180.105 178.652 178.722 176.651 176.164 170.179C173.606 163.706 171.978 160.97 164.76 156.948C157.542 152.925 153.584 143.328 143.791 139.306C133.998 135.284 117.532 125.197 105.16 122.767C92.7886 120.337 94.1068 121.277 95.5954 119.092C97.0839 116.907 97.4177 117.846 100.746 118.357C104.074 118.867 105.143 120.297 101.849 120.195C98.5554 120.092 90.0602 119.317 85.6626 117.622C81.2651 115.927 74.9771 111.721 68.7402 111.374C62.5033 111.027 52.2913 112.824 47.7711 108.066C43.251 103.309 38.8024 94.202 34.1596 92.2622C29.5169 90.3225 18.6917 83.2986 23.859 84.5441C29.0264 85.7896 36.2273 84.2787 36.3669 79.0312C36.5066 73.7837 32.5485 70.9251 31.2166 67.2702C29.8848 63.6153 27.2755 62.5944 16.1336 64.6975C4.99163 66.8006 8.51373 65.5347 23.1233 68.0053C37.7328 70.4759 26.0493 66.8823 41.5172 63.2274C56.9851 59.5725 47.7541 59.5317 38.9421 57.3469C30.13 55.1622 31.1996 51.201 44.4602 54.7742C57.7209 58.3474 73.8769 60.8793 73.5226 59.5521C73.1718 58.2249 65.6575 45.5655 74.6263 51.834C79.7187 54.3454 76.6769 48.0089 89.2869 50.357C102.789 52.8719 94.6007 51.5685 97.4382 53.3041C100.276 55.0396 104.779 56.5914 109.946 58.082C115.113 59.5725 120.352 63.942 128.34 64.6975C136.328 65.453 141.321 71.2926 175.8 73.1507C201.078 74.0287 189.394 66.7598 184.261 63.5949C179.128 60.4301 179.584 56.8365 183.525 55.1417"
        stroke="#606161" stroke-miterlimit="10" />
    <path fill-rule="evenodd" clip-rule="evenodd"
        d="M174.667 32.1943C174.589 34.4982 174.316 35.7641 173.931 37.1015C173.4 38.9528 173.267 38.6499 169.885 38.5716C166.502 38.4934 166.461 38.1905 165.47 38.5716C164.479 38.9528 165.174 40.0281 165.102 41.5119C165.031 42.9956 165.818 41.9577 169.149 41.8794C172.48 41.8011 172.623 40.2119 173.931 41.1443C175.239 42.0768 173.819 43.8872 173.931 45.5547C174.044 47.2222 175.859 49.7268 175.403 51.8027C175.008 53.8173 176.479 53.1061 176.139 55.478C176.111 56.7473 176.479 57.884 176.506 60.2559C176.534 62.6278 176.06 65.3401 176.139 65.7688C176.217 66.1976 173.379 65.9696 172.828 66.8714C172.276 67.7732 174.8 67.1777 175.771 67.239C176.745 67.3002 177.688 65.9152 176.139 65.7688C174.589 65.6225 174.115 65.3911 174.299 64.2987C174.483 63.2063 174.483 59.6161 174.299 58.7858C174.115 57.9554 172.855 55.5188 172.828 54.7429C172.8 53.967 172.327 52.5786 171.356 52.9053C170.385 53.232 171.223 53.8411 169.149 54.0079C167.074 54.1746 167.65 57.884 168.781 58.0507C169.912 58.2175 171.016 58.0915 171.356 56.5806C171.697 55.0696 170.855 53.9466 168.045 54.0079C167.02 54.1746 166.652 53.6812 166.206 53.2728C165.76 52.8645 165.392 54.3142 164.734 56.5806C164.077 58.847 162.922 62.1378 162.895 63.1961C162.868 64.2579 162.554 65.7076 161.423 65.7688C160.293 65.8301 159.451 67.0722 161.791 66.8714C164.131 66.6706 165.129 65.9696 163.631 65.7688C162.132 65.5681 160.293 66.1262 160.688 64.2987C161.083 62.4713 161.502 55.7809 162.159 53.2728C162.711 50.6593 163.447 47.9062 163.631 46.6573C163.815 45.4084 162.973 39.8205 165.838 40.0417C168.546 39.9465 166.073 43.1828 168.413 44.4521C170.753 45.7214 173.959 45.701 173.563 39.6742C173.066 38.2143 173.853 37.6698 171.356 37.469C168.859 37.2683 169.227 37.3533 167.677 37.469C166.128 37.5847 164.864 37.5643 164.366 36.3664C163.869 35.1686 163.971 31.3163 164.366 26.8107C164.762 22.305 164.656 18.6604 164.366 16.8874C164.077 15.111 163.498 13.0964 164.734 13.2121C165.971 13.3278 166.546 13.4639 166.942 11.742C167.337 10.02 167.02 10.7346 165.838 10.2718C164.656 9.80902 165.232 9.94514 165.102 8.80171C164.973 7.65829 163.024 5.95676 165.102 6.22901C167.18 6.50125 166.969 7.63787 167.677 8.06665C168.386 8.49544 167.177 10.5781 165.838 10.6394C164.499 10.7006 164.55 11.2077 164.366 11.742C164.183 12.2762 165.811 11.7828 166.206 12.1095C166.601 12.4362 167.231 13.3074 166.942 15.0497C166.652 16.7921 167.337 17.7177 167.309 18.725C167.282 19.7323 168.018 30.1082 169.149 30.1184C169.701 30.0232 170.12 26.695 170.253 24.973C170.385 23.2511 170.331 21.604 170.253 20.9302C170.174 20.2564 170.542 18.3473 170.62 16.8874C170.699 15.4275 169.176 13.8314 171.356 13.9471C173.536 14.0628 173.117 13.1508 172.46 12.1095C171.802 11.0681 172.497 11.0988 172.514 10.4454C172.535 9.66949 173.475 9.51295 173.448 8.77789C173.42 8.04283 172.702 8.04283 171.261 8.46822C170.133 8.79831 170.198 9.39385 169.82 9.59463C169.06 9.99619 169.49 10.2923 169.813 11.126C170.3 12.3715 169.963 12.7322 170.253 13.2155C170.542 13.6987 172.8 13.5217 172.828 15.0531C172.855 16.5845 173.359 22.1927 173.563 24.2414C173.863 27.2395 176.115 29.3051 173.046 32.1365"
        class="col-1" fill="#1E2123" />
    <path class="col-2"
        d="M174.667 32.1943C174.589 34.4982 174.316 35.7641 173.931 37.1015C173.4 38.9528 173.267 38.6499 169.885 38.5716C166.502 38.4934 166.461 38.1905 165.47 38.5716C164.479 38.9528 165.174 40.0281 165.102 41.5119C165.031 42.9956 165.818 41.9577 169.149 41.8794C172.48 41.8011 172.623 40.2119 173.931 41.1443C175.239 42.0768 173.819 43.8872 173.931 45.5547C174.044 47.2222 175.859 49.7268 175.403 51.8027C175.008 53.8173 176.479 53.1061 176.139 55.478C176.111 56.7473 176.479 57.884 176.506 60.2559C176.534 62.6278 176.06 65.3401 176.139 65.7688M176.139 65.7688C176.217 66.1976 173.379 65.9696 172.828 66.8714C172.276 67.7732 174.8 67.1777 175.771 67.239C176.745 67.3002 177.688 65.9152 176.139 65.7688ZM176.139 65.7688C174.589 65.6225 174.115 65.3911 174.299 64.2987C174.483 63.2063 174.483 59.6161 174.299 58.7858C174.115 57.9554 172.855 55.5188 172.828 54.7429C172.8 53.967 172.327 52.5786 171.356 52.9053C170.385 53.232 171.223 53.8411 169.149 54.0079C167.074 54.1746 167.65 57.884 168.781 58.0507C169.912 58.2175 171.016 58.0915 171.356 56.5806C171.697 55.0696 170.855 53.9466 168.045 54.0079C167.02 54.1746 166.652 53.6812 166.206 53.2728C165.76 52.8645 165.392 54.3142 164.734 56.5806C164.077 58.847 162.922 62.1378 162.895 63.1961C162.868 64.2579 162.554 65.7076 161.423 65.7688C160.293 65.8301 159.451 67.0722 161.791 66.8714C164.131 66.6706 165.129 65.9696 163.631 65.7688C162.132 65.5681 160.293 66.1262 160.688 64.2987C161.083 62.4713 161.502 55.7809 162.159 53.2728C162.711 50.6593 163.447 47.9062 163.631 46.6573C163.815 45.4084 162.973 39.8205 165.838 40.0417C168.546 39.9465 166.073 43.1828 168.413 44.4521C170.753 45.7214 173.959 45.701 173.563 39.6742C173.066 38.2143 173.853 37.6698 171.356 37.469C168.859 37.2683 169.227 37.3533 167.677 37.469C166.128 37.5847 164.864 37.5643 164.366 36.3664C163.869 35.1686 163.971 31.3163 164.366 26.8107C164.762 22.305 164.656 18.6604 164.366 16.8874C164.077 15.111 163.498 13.0964 164.734 13.2121C165.971 13.3278 166.546 13.4639 166.942 11.742C167.337 10.02 167.02 10.7346 165.838 10.2718C164.656 9.80902 165.232 9.94514 165.102 8.80171C164.973 7.65829 163.024 5.95676 165.102 6.22901C167.18 6.50125 166.969 7.63787 167.677 8.06665C168.386 8.49544 167.177 10.5781 165.838 10.6394C164.499 10.7006 164.55 11.2077 164.366 11.742C164.183 12.2762 165.811 11.7828 166.206 12.1095C166.601 12.4362 167.231 13.3074 166.942 15.0497C166.652 16.7921 167.337 17.7177 167.309 18.725C167.282 19.7323 168.018 30.1082 169.149 30.1184C169.701 30.0232 170.12 26.695 170.253 24.973C170.385 23.2511 170.331 21.604 170.253 20.9302C170.174 20.2564 170.542 18.3473 170.62 16.8874C170.699 15.4275 169.176 13.8314 171.356 13.9471C173.536 14.0628 173.117 13.1508 172.46 12.1095C171.802 11.0681 172.497 11.0988 172.514 10.4454C172.535 9.66949 173.475 9.51295 173.448 8.77789C173.42 8.04283 172.702 8.04283 171.261 8.46822C170.133 8.79831 170.198 9.39385 169.82 9.59463C169.06 9.99619 169.49 10.2923 169.813 11.126C170.3 12.3715 169.963 12.7322 170.253 13.2155C170.542 13.6987 172.8 13.5217 172.828 15.0531C172.855 16.5845 173.359 22.1927 173.563 24.2414C173.863 27.2395 176.115 29.3051 173.046 32.1365"
        stroke="#606161" />
</svg>