<svg width="360" height="275" viewBox="0 0 360 275" fill="none" xmlns="http://www.w3.org/2000/svg">
<path d="M30.4805 553.672C30.4805 553.672 70.7221 510.196 56.6843 424.638C42.6466 339.089 15.9748 338.622 -47.2038 311.499C-110.374 284.385 -122.072 233.43 -154.835 221.743C-187.59 210.056 -152.964 158.165 -93.0691 160.97C-33.1747 163.775 -12.5859 148.348 -31.303 127.311C-50.02 106.275 -114.758 92.6052 -173.561 65.6038C-231.74 38.8707 -192.659 38.6024 -215.856 107.305C-236.982 169.861 -197.408 119.823 -137.045 126.368C-76.683 132.912 -60.3057 141.327 -6.01766 155.352C48.2617 169.376 80.0806 153.949 128.753 183.401C177.426 212.852 249.019 207.242 275.691 231.084C302.362 254.925 375.367 246.511 410.462 242.303C445.556 238.096 460.348 234.079 407.654 211.449C289.824 160.849 321.088 156.555 376.771 158.157C425.903 159.568 389.405 167.506 407.654 178.726C425.903 189.945 432.454 176.856 485.33 182.466C538.205 188.075 550.839 183.868 576.107 185.27C601.375 186.673 601.375 190.88 585.466 177.791C577.511 170.311 571.896 173.583 568.621 166.571C565.345 159.559 553.179 154.884 538.673 149.742C524.168 144.6 533.994 153.949 519.956 139.457C505.919 124.965 513.873 143.665 498.432 140.392C482.99 137.12 491.413 131.978 482.522 130.108C473.632 128.238 460.062 126.368 452.575 115.148C445.088 103.929 452.575 105.799 443.217 102.059C433.858 98.3188 430.115 67.9325 414.205 61.8553C398.296 55.778 401.103 47.3633 389.873 43.156C378.643 38.9487 373.964 31.9364 369.284 28.1966C364.605 24.4567 326.703 2.48508 312.197 1.08263C297.692 -0.319811 312.198 6.69241 304.711 3.88752C297.224 1.08263 302.371 14.1721 289.737 9.49731C277.103 4.82249 280.847 0.615152 271.02 2.95256C261.194 5.28997 264.469 8.09486 256.046 8.56234C247.624 9.02982 250.431 21.6518 227.971 30.0665C217.633 33.9362 210.666 36.6286 204.783 38.94C203.249 39.546 200.381 43.5196 198.96 44.091C193.977 46.0821 185.606 41.6497 180.243 45.0259C171.82 50.324 167.141 63.7252 146.552 66.5301C125.963 69.335 120.816 71.6724 112.861 76.8147C104.907 81.957 74.0236 94.1115 50.1594 90.8391C26.2952 87.5668 23.9556 85.6968 36.1216 85.2293C48.2877 84.7619 50.6273 83.3594 49.2235 77.7496C47.8197 72.1399 44.5443 68.8675 63.2613 66.5301C81.9783 64.1927 95.0802 61.3878 74.4915 58.1154C53.9028 54.843 43.1405 50.1682 28.6348 43.156C14.1291 36.1438 18.3404 41.2861 11.7895 40.3511C5.23853 39.4161 3.36685 44.5584 -8.79921 45.9609C-20.9653 47.3633 -15.8181 54.3756 -32.1955 59.0504C-48.5729 63.7252 -48.5729 61.3878 -49.9766 64.6602C-51.3804 67.9325 -77.1163 70.7374 -50.9125 72.1399C-24.7087 73.5423 11.3216 76.3472 33.3141 76.8147C55.3066 77.2822 62.3254 79.1521 86.6576 70.2699C92.2727 67.465 86.1896 63.2577 96.9519 60.9203C107.714 58.5829 104.907 59.9853 119.412 60.9203C128.892 61.5349 161.976 52.0814 178.371 57.1804C185.338 59.3447 188.44 53.9254 188.665 54.9383C188.951 56.2282 190.468 56.2541 192.599 55.6828C194.627 55.146 196.369 52.6268 198.96 51.5707C201.291 50.627 204.471 51.1292 206.446 50.6357C277.103 32.8714 232.182 36.6112 266.341 16.977C273.828 11.8347 270.552 3.88752 292.545 20.7169C314.537 37.5462 318.281 31.4689 325.299 41.2861C330.915 45.4934 332.318 32.8714 348.696 53.4406C365.073 74.0098 387.533 81.4895 400.167 95.5139C412.801 109.538 412.801 125.433 408.59 139.457C404.379 153.482 408.122 168.909 417.013 174.986C425.903 181.063 429.179 176.388 425.435 163.766C421.692 151.144 420.756 150.209 390.809 131.978C360.862 113.746 379.579 116.083 369.284 108.603C358.99 101.124 344.952 93.1765 337.465 84.2944C329.979 75.4122 317.267 58.5829 341.209 73.0748C365.151 87.5668 368.115 90.6833 378.643 94.579C389.171 98.4747 376.225 91.9299 366.477 93.644C357.032 95.3062 328.185 65.1276 319.684 55.3105C311.184 45.4934 296.366 45.8051 283.186 33.8064C270.006 21.8077 271.41 31.4689 267.277 43.156C263.143 54.843 229.609 52.0381 230.779 51.5707C231.948 51.1032 206.16 59.717 206.446 71.2049C206.732 82.6928 205.927 87.0646 204.575 91.7741C203.223 96.4835 202.885 95.7131 194.28 95.5139C185.676 95.3148 185.572 94.5444 183.05 95.5139C180.529 96.4835 182.296 99.2192 182.114 102.994C181.932 106.768 183.934 104.128 192.409 103.929C200.883 103.73 201.247 99.6867 204.575 102.059C207.902 104.431 204.289 109.036 204.575 113.278C204.861 117.52 209.479 123.892 208.318 129.173C207.313 134.298 211.056 132.488 210.19 138.522C210.12 141.751 211.056 144.643 211.126 150.677C211.195 156.711 209.991 163.61 210.19 164.701M210.19 164.701C210.389 165.792 203.171 165.212 201.767 167.506C200.363 169.8 206.784 168.285 209.254 168.441C211.732 168.597 214.133 165.073 210.19 164.701ZM210.19 164.701C206.247 164.329 205.043 163.74 205.511 160.961C205.978 158.182 205.978 149.049 205.511 146.937C205.043 144.825 201.836 138.626 201.767 136.652C201.698 134.679 200.493 131.146 198.024 131.978C195.554 132.809 197.686 134.358 192.409 134.782C187.131 135.207 188.596 144.643 191.473 145.067C194.35 145.491 197.157 145.171 198.024 141.327C198.89 137.483 196.75 134.627 189.601 134.782C186.993 135.207 186.057 133.951 184.922 132.912C183.787 131.874 182.851 135.562 181.178 141.327C179.506 147.093 176.569 155.464 176.499 158.157C176.43 160.858 175.633 164.545 172.756 164.701C169.879 164.857 167.739 168.017 173.692 167.506C179.645 166.995 182.184 165.212 178.371 164.701C174.558 164.19 169.879 165.61 170.884 160.961C171.889 156.313 172.955 139.293 174.628 132.912C176.031 126.264 177.903 119.26 178.371 116.083C178.839 112.906 176.698 98.6911 183.986 99.2538C190.875 99.0114 184.584 107.244 190.537 110.473C196.49 113.702 204.644 113.651 203.639 98.3188C202.374 94.605 204.375 93.2198 198.024 92.7091C191.672 92.1983 192.608 92.4147 188.665 92.7091C184.723 93.0034 181.508 92.9515 180.243 89.9042C178.977 86.8569 179.237 77.0571 180.243 65.5951C181.248 54.1332 180.979 44.8614 180.243 40.3511C179.506 35.8321 178.033 30.7071 181.178 31.0015C184.324 31.2958 185.788 31.6421 186.794 27.2616C187.799 22.8811 186.993 24.6991 183.986 23.5218C180.979 22.3444 182.444 22.6907 182.114 19.7819C181.785 16.8731 176.828 12.5446 182.114 13.2372C187.4 13.9297 186.863 16.8212 188.665 17.912C190.468 19.0028 187.391 24.3009 183.986 24.4567C180.581 24.6125 180.711 25.9024 180.243 27.2616C179.775 28.6208 183.917 27.3655 184.922 28.1966C185.927 29.0277 187.53 31.2439 186.794 35.6763C186.057 40.1087 187.799 42.4634 187.729 45.0259C187.66 47.5884 189.532 73.9838 192.409 74.0098C193.812 73.7674 194.878 65.3008 195.216 60.9203C195.554 56.5398 195.416 52.3498 195.216 50.6357C195.017 48.9216 195.953 44.065 196.152 40.3511C196.351 36.6372 192.478 32.5771 198.024 32.8714C203.57 33.1657 202.504 30.8456 200.831 28.1966C199.159 25.5475 200.927 25.6254 200.97 23.9633C201.022 21.9895 203.414 21.5912 203.344 19.7213C203.275 17.8514 201.447 17.8514 197.781 18.9335C194.913 19.7732 195.078 21.2882 194.116 21.799C192.183 22.8205 193.275 23.5737 194.098 25.6947C195.338 28.8632 194.48 29.7808 195.216 31.0101C195.953 32.2394 201.698 31.7893 201.767 35.6849C201.836 39.5806 203.708 53.8215 203.639 59.059C203.57 64.2966 205.441 72.5208 210.19 77.7583C214.938 82.9958 239.4 71.7243 245.752 70.2786C252.104 68.8329 255.041 54.4881 269.148 60.929C283.255 67.3698 312.631 94.5617 331.85 105.807C351.07 117.053 328.67 107.521 308.454 99.2625C288.238 91.0036 282.415 108.984 271.02 115.157C259.625 121.329 258.083 126.489 245.752 127.311C233.421 128.142 218.907 130.627 236.394 122.637C253.88 114.646 253.941 110.854 258.854 108.612C263.767 106.37 269.313 106.985 272.892 108.612C276.471 110.24 296.851 125.684 315.941 127.311C335.031 128.939 335.758 129.822 338.401 133.856C341.044 137.89 348.323 137.172 355.247 141.336C362.17 145.5 360.221 148.391 367.413 150.685C374.605 152.98 379.475 151.594 380.515 155.36C381.554 159.126 382.152 161.481 390.809 166.58C399.466 171.679 396.32 172.562 399.232 180.604C402.143 188.647 406.216 189.66 397.36 190.889C388.504 192.118 382.014 194.473 398.296 196.499C414.578 198.524 436.969 189.928 418.884 190.889C410.696 190.785 405.817 189.928 408.59 193.694C411.363 197.46 413.165 206.627 407.654 213.328C402.143 220.029 409.959 219.31 423.564 224.548C437.168 229.785 440.972 223.855 446.96 228.287C452.948 232.72 454.481 234.14 461.934 238.572C469.386 243.004 474.533 245.489 473.164 249.792C471.795 254.094 463.467 249.748 462.869 257.271C462.272 264.794 461.734 268.716 454.447 261.946C447.159 255.176 437.662 253.358 446.96 250.727C456.258 248.095 459.724 245.74 463.805 249.792C467.887 253.843 474.03 254.691 478.779 258.206C483.527 261.721 485.659 265.244 488.137 273.166C490.616 281.087 489.403 281.805 493.753 281.58C498.103 281.355 500.364 288.22 508.726 289.06C517.088 289.9 510.26 293.025 480.651 289.995C464.412 288.835 481.647 293.96 474.1 294.67C466.552 295.38 452.506 294.09 444.152 294.67C435.799 295.25 430.583 286.342 417.949 284.385C405.315 282.42 414.673 290.618 403.911 291.865C393.149 293.112 392.343 297.033 411.398 299.345C430.453 301.656 432.584 299.033 440.409 300.28C448.234 301.526 431.917 294.756 423.564 290.93C415.21 287.095 418.685 276.594 411.398 277.84C404.11 279.087 410.522 283.277 395.488 272.231C380.445 261.184 371.884 253.488 372.092 263.816C372.291 274.144 372.023 279.667 376.771 286.255C381.52 292.843 382.386 292.8 382.386 292.8C382.386 292.8 399.968 295.7 386.13 296.54C372.291 297.379 363.063 299.838 363.669 301.215C364.276 302.591 375.636 304.781 374.9 310.564C374.163 316.347 388.599 320.269 395.488 320.849C402.377 321.429 394.882 314.798 395.488 313.369C396.095 311.941 392.074 307.448 386.13 308.694C380.185 309.941 380.445 316.131 368.349 313.369C356.252 310.607 358.115 313.057 351.503 315.239C344.892 317.421 328.09 321.602 337.465 316.174C346.833 310.746 345.204 306.643 345.888 304.019C346.573 301.396 345.074 299.431 339.337 294.67C333.601 289.908 333.038 286.203 330.915 275.036C328.792 263.868 331.434 260.561 333.722 268.491C336.01 276.421 346.547 297.025 334.658 295.605C322.769 294.185 331.304 304.106 332.786 306.824C334.268 309.543 324.086 307.577 327.171 314.304C330.256 321.031 333.973 322.667 324.364 319.914C314.754 317.161 313.125 314.927 309.39 322.719C305.655 330.519 302.692 345.513 296.288 339.548C289.884 333.583 292.935 339.236 279.443 340.483C276.245 344.006 278.628 349.253 261.662 347.028C244.695 344.803 241.593 348.318 237.329 340.483C233.066 332.648 241.463 321.463 240.137 307.759C238.811 294.047 233.17 293.951 243.88 287.19C254.591 280.429 247.078 267.374 251.367 256.336C255.657 245.299 256.705 232.78 259.79 239.507C262.875 246.234 262.597 246.052 262.597 246.052C262.597 246.052 259.513 260.163 271.956 261.946C284.399 263.729 280.231 254.016 288.801 258.206C297.371 262.396 287.051 262.301 297.224 271.296C307.397 280.29 298.281 288.61 305.647 294.67C313.012 300.73 300.69 299.033 300.967 306.824C301.245 314.616 297.475 323.342 298.16 327.394C298.844 331.445 299.616 330.146 299.096 331.133C298.576 332.12 300.283 338.561 302.839 329.263C305.395 319.966 297.475 319.464 296.288 309.629C295.101 299.795 288.255 298.894 285.058 306.824C281.86 314.754 279.027 320.269 279.443 326.459C279.859 332.648 283.706 331.081 279.443 335.808C275.179 340.535 270.206 335.626 259.79 337.678C249.374 339.73 244.539 343.106 236.394 348.898C228.248 354.689 226.619 350.586 222.356 349.833C218.093 349.079 219.401 362.61 209.254 356.377C199.107 350.144 185.71 358.066 182.114 350.768C178.518 343.47 181.3 304.902 180.243 298.41C179.185 291.917 186.248 296.895 195.216 316.174C204.185 335.453 204.297 334.96 204.575 340.483C204.852 346.006 204.159 345.781 208.318 350.768C212.477 355.754 212.989 360.602 199.895 360.117C186.802 359.632 179.567 357.581 168.077 356.377C156.586 355.174 135.304 331.973 132.514 297.475C129.724 262.976 120.955 252.501 126.899 245.117C132.844 237.732 109.101 199.52 115.669 202.108C122.237 204.697 135.304 228.192 138.129 235.767C140.954 243.342 147.782 251.566 164.333 264.751C180.884 277.936 174.298 282.42 174.628 287.19C174.957 291.96 171.785 295.492 165.269 301.215C158.735 306.954 157.574 382.929 153.103 311.499C147.869 265.253 159.325 275.252 146.552 263.816C133.779 252.38 125.634 243.775 171.82 238.572C218.006 233.369 205.181 281.797 212.061 251.662C218.942 221.526 211.108 220.712 232.65 222.678C254.192 224.643 258.837 216.038 284.122 226.417C309.407 236.797 332.769 228.192 319.684 221.743C306.6 215.293 301.886 216.973 308.454 212.393C315.022 207.813 310.932 203.571 299.096 199.304C287.259 195.036 287.224 197.962 294.416 174.994C301.609 152.027 295.647 159.94 321.556 155.36C347.465 150.781 330.585 142.176 271.02 139.466C211.455 136.756 330.585 173.341 237.329 175.929C144.065 178.518 101.917 165.861 134.377 156.295C166.837 146.729 152.141 138.124 136.249 134.791C120.357 131.458 123.442 124.1 110.045 117.962C96.6486 111.824 88.1913 118.49 76.3545 107.677C64.5177 96.8644 58.2441 102.595 37.0488 96.4576C15.8535 90.3197 25.4893 85.4544 8.97327 82.4331C-7.54276 79.4118 -9.44911 82.0262 -14.423 80.5632C-19.3969 79.1001 -25.6705 82.6495 -35.0117 81.4982C-44.3529 80.3468 -53.1221 72.6766 -60.2797 85.238C-67.4372 97.7994 -69.6555 103.842 -63.0872 103.002C-56.5189 102.163 -26.2944 101.972 -6.00034 112.352C14.2938 122.732 21.434 132.514 31.4337 131.051C41.4334 129.588 50.7573 139.059 65.1243 148.816C79.4914 158.572 60.4277 139.371 80.0979 134.791C99.7681 130.211 74.1535 119.113 21.1393 107.677C-31.8749 96.2411 -35.9649 95.739 -43.4343 99.2625C-50.9038 102.786 -58.7372 106.647 -35.9475 111.417C-13.1578 116.187 -29.7259 128.151 4.29402 143.206C38.3139 158.26 55.7485 157.135 46.4073 153.49C37.0661 149.846 44.5183 149.032 31.4337 146.946C18.3491 144.859 -16.624 124.723 -10.6796 139.466C-4.7352 154.209 13.3232 163.991 44.5356 169.385C75.748 174.778 143.727 206.065 86.6489 189.954C29.5793 173.843 9.26789 169.289 -14.4317 166.58C-38.1225 163.87 -53.7547 175.211 -76.1978 189.954C-98.6409 204.697 -103.979 207.935 -90.2356 228.287C-76.4924 248.64 -53.1481 265.314 -49.0581 273.166C-44.9681 281.018 -23.2009 284.013 2.41367 279.71C28.0282 275.408 14.5451 261.885 10.8363 246.052C7.12758 230.218 6.12239 213.267 -0.3939 206.783C-6.91019 200.299 -26.3204 181.167 -1.32974 195.564C23.6609 209.96 22.9677 221.994 39.8477 222.678C56.7276 223.362 87.8534 217.007 94.127 224.548C100.401 232.088 97.8358 243.81 103.486 251.662C109.135 259.513 105.635 266.249 110.972 276.905C116.31 287.562 127.783 305.829 122.203 303.084C116.622 300.34 124.352 312.685 121.267 323.654C118.182 334.622 114.69 335.678 178.354 366.662C242.017 397.646 285.647 449.121 359.917 466.712C398.937 476.815 354.588 458.167 349.623 450.817C344.658 443.467 315.282 454.739 266.332 442.403C217.382 430.066 188.319 420.769 277.562 480.736C366.806 540.712 279.391 494.709 183.969 503.175C88.5466 511.642 52.5943 451.389 -13.5045 480.736C-42.7845 501.357 -118.051 542.401 -139.853 509.72C-161.646 477.04 -154.246 450.142 -167.928 444.273C-181.611 438.403 -181.386 440.481 -155.762 407.809C-130.139 375.137 -144.264 334.83 -137.045 318.988C-129.827 303.145 -138.337 242.58 -176.351 228.296C-214.366 214.012 -175.771 216.713 -196.004 209.597C-216.237 202.481 -225.683 167.783 -225.951 206.792C-226.22 245.801 -211.021 258.795 -220.336 271.304C-229.651 283.822 -230.674 284.965 -210.042 326.467C-189.41 367.969 -222.251 385.327 -196.004 405.939C-169.757 426.56 -176.083 433.945 -159.506 438.663C-142.929 443.39 -146.135 505.625 -139.853 532.168C-133.571 558.71 -165.112 559.948 -192.261 573.306C-219.088 586.508 -231.332 582.457 -219.4 547.127C-206.888 510.066 -198.318 490.934 -190.389 475.135C-181.741 457.908 -179.8 489.748 -178.604 515.572C-177.4 541.587 -189.496 537.734 -198.812 545.266C-208.127 552.798 -213.828 536.799 -181.03 481.688C-168.197 464.599 -164.228 470.105 -164.185 490.103C-164.142 510.101 -159.861 514.992 -152.019 524.697C-144.177 534.41 -123.675 554.572 -164.185 570.51C-204.695 586.456 -227.242 596.957 -228.759 584.534C-230.275 572.12 -230.362 553.317 -234.374 543.396C-238.386 533.475 -230.024 525.623 -225.015 515.347C-221.22 507.564 -206.03 470.902 -207.234 488.233C-208.465 505.937 -217.399 522.394 -218.317 530.757C-219.496 541.5 -225.154 530.748 -226.887 522.827C-228.109 517.269 -232.857 512.802 -226.887 496.648C-220.917 480.494 -203.534 460.132 -197.876 449.9C-192.217 439.667 -182.945 424.292 -181.966 448.965C-180.987 473.637 -164.852 462.002 -146.404 431.2C-127.956 400.39 -126.17 394.062 -111.777 417.176C-97.3844 440.29 -94.3516 442.065 -82.7661 429.331C-71.1806 416.605 -60.037 416.189 -40.6528 434.005C-21.2686 451.822 -10.437 356.351 10.819 383.517C32.0749 410.683 58.5127 446.117 124.066 467.664C189.618 489.22 357.066 515.927 326.218 489.168C295.378 462.409 273.767 462.626 260.708 451.77C247.65 440.914 246.939 436.758 233.569 444.29C220.198 451.822 216.68 446.731 210.172 430.265C203.665 413.8 199.523 406.839 181.161 396.607C162.799 386.374 152.73 361.961 127.818 351.729C102.905 341.496 61.017 315.836 29.5447 309.655C-1.92764 303.474 1.42581 305.863 5.21254 300.306C8.99927 294.748 9.84846 297.137 18.3144 298.436C26.7804 299.734 29.5013 303.37 21.122 303.11C12.7427 302.851 -8.86854 300.877 -20.0554 296.566C-31.2423 292.254 -47.2384 281.554 -63.1046 280.671C-78.9707 279.788 -104.949 284.359 -116.448 272.257C-127.947 260.154 -139.264 236.988 -151.075 232.053C-162.885 227.119 -190.424 209.251 -177.278 212.419C-164.133 215.587 -145.815 211.744 -145.459 198.395C-145.104 185.045 -155.173 177.773 -158.561 168.476C-161.949 159.178 -168.587 156.581 -196.931 161.931C-225.275 167.281 -216.315 164.061 -179.15 170.346C-141.985 176.631 -171.707 167.489 -132.357 158.191C-93.0084 148.893 -116.491 148.79 -138.908 143.232C-161.326 137.674 -158.605 127.597 -124.871 136.687C-91.1367 145.777 -50.0373 152.218 -50.9385 148.841C-51.831 145.465 -70.9466 113.261 -48.1309 129.207C-35.1763 135.596 -42.9144 119.477 -10.8356 125.45C23.5136 131.848 2.68228 128.532 9.90046 132.947C17.1186 137.362 28.5741 141.31 41.7194 145.102C54.8646 148.893 68.1918 160.009 88.5119 161.931C108.832 163.853 121.535 178.708 209.245 183.435C273.55 185.669 243.828 167.177 230.77 159.126C217.711 151.075 218.872 141.933 228.898 137.622" stroke="#606161" stroke-miterlimit="10"/>
<path fill-rule="evenodd" clip-rule="evenodd" d="M206.362 79.2455C206.162 85.1063 205.469 88.3268 204.49 91.729C203.138 96.4384 202.8 95.668 194.195 95.4688C185.591 95.2697 185.487 94.4993 182.965 95.4688C180.444 96.4384 182.211 99.1741 182.029 102.949C181.847 106.723 183.849 104.083 192.324 103.884C200.798 103.684 201.162 99.6416 204.49 102.014C207.817 104.386 204.204 108.991 204.49 113.233C204.776 117.475 209.394 123.847 208.233 129.128C207.228 134.253 210.971 132.443 210.105 138.477C210.036 141.706 210.971 144.598 211.041 150.632C211.11 156.666 209.906 163.565 210.105 164.656C210.304 165.747 203.086 165.167 201.682 167.461C200.279 169.755 206.7 168.24 209.169 168.396C211.647 168.552 214.048 165.028 210.105 164.656C206.162 164.284 204.958 163.695 205.426 160.916C205.894 158.137 205.894 149.004 205.426 146.892C204.958 144.78 201.752 138.581 201.682 136.607C201.613 134.633 200.409 131.101 197.939 131.932C195.469 132.763 197.601 134.313 192.324 134.737C187.047 135.161 188.511 144.598 191.388 145.022C194.265 145.446 197.072 145.126 197.939 141.282C198.805 137.438 196.665 134.581 189.516 134.737C186.908 135.161 185.972 133.906 184.837 132.867C183.702 131.829 182.766 135.516 181.094 141.282C179.421 147.048 176.484 155.419 176.414 158.111C176.345 160.812 175.548 164.5 172.671 164.656C169.794 164.812 167.654 167.972 173.607 167.461C179.56 166.95 182.099 165.167 178.286 164.656C174.473 164.145 169.794 165.565 170.799 160.916C171.804 156.267 172.87 139.248 174.543 132.867C175.946 126.219 177.818 119.215 178.286 116.038C178.754 112.861 176.614 98.646 183.901 99.2087C190.79 98.9663 184.499 107.199 190.452 110.428C196.405 113.657 204.559 113.605 203.554 98.2737C202.289 94.5599 204.291 93.1747 197.939 92.664C191.587 92.1532 192.523 92.3696 188.58 92.664C184.638 92.9583 181.423 92.9064 180.158 89.8591C178.893 86.8118 179.153 77.012 180.158 65.55C181.163 54.0881 180.894 44.8163 180.158 40.306C179.421 35.787 177.948 30.662 181.094 30.9564C184.239 31.2507 185.703 31.597 186.709 27.2165C187.714 22.836 186.908 24.654 183.901 23.4767C180.894 22.2993 182.359 22.6456 182.029 19.7368C181.7 16.828 176.744 12.4995 182.029 13.1921C187.315 13.8846 186.778 16.7761 188.58 17.8669C190.383 18.9577 187.307 24.2558 183.901 24.4116C180.496 24.5675 180.626 25.8574 180.158 27.2165C179.69 28.5757 183.832 27.3204 184.837 28.1515C185.842 28.9826 187.445 31.1988 186.709 35.6312C185.972 40.0636 187.714 42.4183 187.645 44.9808C187.575 47.5433 189.447 73.9387 192.324 73.9647C193.728 73.7223 194.793 65.2557 195.131 60.8752C195.469 56.4947 195.331 52.3047 195.131 50.5906C194.932 48.8765 195.868 44.0199 196.067 40.306C196.266 36.5921 192.393 32.532 197.939 32.8263C203.485 33.1206 202.419 30.8006 200.746 28.1515C199.074 25.5024 200.842 25.5803 200.885 23.9182C200.937 21.9444 203.329 21.5461 203.259 19.6762C203.19 17.8063 201.362 17.8063 197.696 18.8884C194.828 19.7282 194.993 21.2431 194.031 21.7539C192.098 22.7754 193.19 23.5286 194.014 25.6496C195.253 28.8181 194.395 29.7357 195.131 30.965C195.868 32.1943 201.613 31.7442 201.682 35.6399C201.752 39.5355 203.034 53.8024 203.554 59.0139C204.317 66.6408 210.044 71.8957 202.237 79.0983" fill="#CC4429"/>
<path d="M206.362 79.2455C206.162 85.1063 205.469 88.3268 204.49 91.729C203.138 96.4384 202.8 95.668 194.195 95.4688C185.591 95.2697 185.487 94.4993 182.965 95.4688C180.444 96.4384 182.211 99.1741 182.029 102.949C181.847 106.723 183.849 104.083 192.324 103.884C200.798 103.684 201.162 99.6416 204.49 102.014C207.817 104.386 204.204 108.991 204.49 113.233C204.776 117.475 209.394 123.847 208.233 129.128C207.228 134.253 210.971 132.443 210.105 138.477C210.036 141.706 210.971 144.598 211.041 150.632C211.11 156.666 209.906 163.565 210.105 164.656M210.105 164.656C210.304 165.747 203.086 165.167 201.682 167.461C200.279 169.755 206.7 168.24 209.169 168.396C211.647 168.552 214.048 165.028 210.105 164.656ZM210.105 164.656C206.162 164.284 204.958 163.695 205.426 160.916C205.894 158.137 205.894 149.004 205.426 146.892C204.958 144.78 201.752 138.581 201.682 136.607C201.613 134.633 200.409 131.101 197.939 131.932C195.469 132.763 197.601 134.313 192.324 134.737C187.047 135.161 188.511 144.598 191.388 145.022C194.265 145.446 197.072 145.126 197.939 141.282C198.805 137.438 196.665 134.581 189.516 134.737C186.908 135.161 185.972 133.906 184.837 132.867C183.702 131.829 182.766 135.516 181.094 141.282C179.421 147.048 176.484 155.419 176.414 158.111C176.345 160.812 175.548 164.5 172.671 164.656C169.794 164.812 167.654 167.972 173.607 167.461C179.56 166.95 182.099 165.167 178.286 164.656C174.473 164.145 169.794 165.565 170.799 160.916C171.804 156.267 172.87 139.248 174.543 132.867C175.946 126.219 177.818 119.215 178.286 116.038C178.754 112.861 176.614 98.646 183.901 99.2087C190.79 98.9663 184.499 107.199 190.452 110.428C196.405 113.657 204.559 113.605 203.554 98.2737C202.289 94.5599 204.291 93.1747 197.939 92.664C191.587 92.1532 192.523 92.3696 188.58 92.664C184.638 92.9583 181.423 92.9064 180.158 89.8591C178.893 86.8118 179.153 77.012 180.158 65.55C181.163 54.0881 180.894 44.8163 180.158 40.306C179.421 35.787 177.948 30.662 181.094 30.9564C184.239 31.2507 185.703 31.597 186.709 27.2165C187.714 22.836 186.908 24.654 183.901 23.4767C180.894 22.2993 182.359 22.6456 182.029 19.7368C181.7 16.828 176.744 12.4995 182.029 13.1921C187.315 13.8846 186.778 16.7761 188.58 17.8669C190.383 18.9577 187.307 24.2558 183.901 24.4116C180.496 24.5675 180.626 25.8574 180.158 27.2165C179.69 28.5757 183.832 27.3204 184.837 28.1515C185.842 28.9826 187.445 31.1988 186.709 35.6312C185.972 40.0636 187.714 42.4183 187.645 44.9808C187.575 47.5433 189.447 73.9387 192.324 73.9647C193.728 73.7223 194.793 65.2557 195.131 60.8752C195.469 56.4947 195.331 52.3047 195.131 50.5906C194.932 48.8765 195.868 44.0199 196.067 40.306C196.266 36.5921 192.393 32.532 197.939 32.8263C203.485 33.1206 202.419 30.8006 200.746 28.1515C199.074 25.5024 200.842 25.5803 200.885 23.9182C200.937 21.9444 203.329 21.5461 203.259 19.6762C203.19 17.8063 201.362 17.8063 197.696 18.8884C194.828 19.7282 194.993 21.2431 194.031 21.7539C192.098 22.7754 193.19 23.5286 194.014 25.6496C195.253 28.8181 194.395 29.7357 195.131 30.965C195.868 32.1943 201.613 31.7442 201.682 35.6399C201.752 39.5355 203.034 53.8024 203.554 59.0139C204.317 66.6408 210.044 71.8957 202.237 79.0983" stroke="#CC4429"/>
</svg>
