<svg width="926" height="656" viewBox="0 0 926 656" fill="none" xmlns="http://www.w3.org/2000/svg">
    <path
        d="M296.211 614.687C296.211 614.687 340.887 566.421 325.302 471.436C309.717 376.46 280.107 375.941 209.967 345.83C139.836 315.728 126.849 259.158 90.4751 246.183C54.1111 233.208 92.5531 175.6 159.047 178.714C225.541 181.828 248.399 164.701 227.619 141.346C206.84 117.991 134.968 102.816 69.6861 72.839C5.09667 43.1603 48.4834 42.8623 22.7303 119.135C-0.723498 188.584 43.2115 133.033 110.225 140.299C177.239 147.564 195.421 156.906 255.691 172.476C315.951 188.046 351.276 170.919 405.312 203.616C459.349 236.312 538.83 230.084 568.441 256.553C598.051 283.022 679.101 273.68 718.062 269.009C757.024 264.338 773.445 259.878 714.945 234.755C584.131 178.579 618.84 173.812 680.659 175.59C735.205 177.157 694.685 185.97 714.945 198.426C735.205 210.882 742.478 196.35 801.18 202.578C859.882 208.806 873.908 204.135 901.96 205.692C930.012 207.249 930.013 211.92 912.35 197.388C903.519 189.084 897.285 192.717 893.648 184.932C890.012 177.147 876.505 171.957 860.401 166.248C844.297 160.539 855.206 170.919 839.622 154.83C824.037 138.742 832.869 159.501 815.726 155.868C798.583 152.235 807.933 146.526 798.063 144.45C788.193 142.375 773.128 140.299 764.816 127.843C756.504 115.387 764.816 117.463 754.426 113.311C744.037 109.159 739.881 75.4244 722.218 68.6774C704.556 61.9305 707.672 52.5886 695.205 47.9177C682.737 43.2468 677.542 35.4619 672.347 31.3099C667.153 27.158 625.074 2.76527 608.97 1.20829C592.866 -0.348693 608.97 7.43621 600.658 4.32225C592.347 1.20829 598.061 15.7401 584.035 10.5502C570.009 5.36024 574.165 0.689294 563.255 3.28426C552.346 5.87923 555.983 8.99319 546.632 9.51218C537.281 10.0312 540.398 24.044 515.463 33.3859C503.986 37.682 496.251 40.671 489.719 43.2372C488.017 43.9099 484.832 48.3214 483.255 48.9557C477.723 51.1662 468.43 46.2454 462.475 49.9937C453.124 55.8756 447.93 70.7534 425.072 73.8674C402.215 76.9813 396.5 79.5763 387.669 85.2852C378.838 90.9942 344.552 104.488 318.058 100.855C291.564 97.2221 288.967 95.1461 302.474 94.6271C315.98 94.1081 318.578 92.5511 317.019 86.3232C315.461 80.0953 311.824 76.4623 332.604 73.8674C353.383 71.2724 367.929 68.1584 345.071 64.5255C322.214 60.8925 310.266 55.7026 294.162 47.9177C278.058 40.1328 282.733 45.8417 275.46 44.8037C268.187 43.7658 266.109 49.4747 252.603 51.0317C239.096 52.5886 244.811 60.3735 226.629 65.5635C208.447 70.7534 208.447 68.1585 206.888 71.7914C205.33 75.4244 176.758 78.5383 205.849 80.0953C234.94 81.6523 274.941 84.7662 299.357 85.2852C323.772 85.8042 331.565 87.8802 358.578 78.0193C364.812 74.9054 358.058 70.2344 370.007 67.6395C381.955 65.0445 378.838 66.6015 394.942 67.6395C405.466 68.3218 442.196 57.8266 460.397 63.4875C468.132 65.8903 471.576 59.8738 471.826 60.9983C472.143 62.4303 473.827 62.4591 476.193 61.8248C478.445 61.2289 480.378 58.4321 483.255 57.2596C485.842 56.212 489.373 56.7694 491.566 56.2216C570.009 36.4998 520.138 40.6518 558.061 18.8541C566.372 13.1451 562.736 4.32225 587.152 23.006C611.568 41.6898 615.723 34.9429 623.516 45.8417C629.75 50.5127 631.308 36.4998 649.49 59.3356C667.672 82.1713 692.607 90.4752 706.634 106.045C720.66 121.615 720.66 139.261 715.984 154.83C711.309 170.4 715.465 187.527 725.335 194.274C735.205 201.021 738.842 195.831 734.686 181.818C730.53 167.805 729.491 166.767 696.244 146.526C662.997 126.286 683.776 128.881 672.347 120.577C660.919 112.273 645.334 103.45 637.022 93.5891C628.711 83.7282 614.598 65.0445 641.178 81.1333C667.759 97.2221 671.049 100.682 682.737 105.007C694.426 109.332 680.053 102.066 669.231 103.969C658.745 105.814 626.719 72.3104 617.282 61.4115C607.845 50.5127 591.394 50.8587 576.762 37.5378C562.13 24.217 563.688 34.9429 559.1 47.9177C554.511 60.8925 517.281 57.7786 518.58 57.2596C519.878 56.7406 491.249 66.3035 491.566 79.0573C491.884 91.8111 490.989 96.6646 489.488 101.893C487.988 107.121 487.613 106.266 478.06 106.045C468.507 105.824 468.392 104.969 465.592 106.045C462.793 107.121 464.755 110.158 464.553 114.349C464.351 118.539 466.573 115.608 475.982 115.387C485.39 115.166 485.794 110.677 489.488 113.311C493.183 115.944 489.171 121.057 489.488 125.767C489.806 130.476 494.933 137.55 493.644 143.412C492.528 149.102 496.684 147.094 495.722 153.792C495.645 157.377 496.684 160.587 496.761 167.286C496.838 173.985 495.501 181.645 495.722 182.856M495.722 182.856C495.944 184.067 487.93 183.423 486.372 185.97C484.813 188.517 491.942 186.835 494.683 187.008C497.435 187.181 500.099 183.269 495.722 182.856ZM495.722 182.856C491.345 182.443 490.008 181.789 490.527 178.704C491.047 175.619 491.047 165.479 490.527 163.134C490.008 160.789 486.448 153.908 486.372 151.716C486.295 149.525 484.957 145.604 482.216 146.526C479.474 147.449 481.84 149.169 475.982 149.64C470.123 150.111 471.749 160.587 474.943 161.058C478.137 161.529 481.254 161.174 482.216 156.906C483.178 152.639 480.801 149.467 472.865 149.64C469.969 150.111 468.93 148.718 467.67 147.564C466.41 146.411 465.371 150.505 463.514 156.906C461.657 163.307 458.396 172.601 458.319 175.59C458.242 178.589 457.357 182.683 454.163 182.856C450.97 183.029 448.593 186.537 455.202 185.97C461.811 185.403 464.63 183.423 460.397 182.856C456.164 182.289 450.97 183.865 452.085 178.704C453.201 173.543 454.385 154.648 456.241 147.564C457.8 140.183 459.878 132.408 460.397 128.881C460.917 125.353 458.541 109.572 466.631 110.197C474.279 109.928 467.295 119.068 473.904 122.653C480.513 126.238 489.565 126.18 488.449 109.159C487.045 105.036 489.267 103.498 482.216 102.931C475.164 102.364 476.203 102.604 471.826 102.931C467.449 103.258 463.88 103.2 462.475 99.817C461.071 96.434 461.359 85.5543 462.475 72.8294C463.591 60.1044 463.293 49.8111 462.475 44.8037C461.657 39.7868 460.022 34.0971 463.514 34.4239C467.006 34.7506 468.632 35.1351 469.748 30.2719C470.864 25.4088 469.969 27.4271 466.631 26.12C463.293 24.8129 464.919 25.1973 464.553 21.968C464.188 18.7387 458.685 13.9332 464.553 14.7021C470.421 15.471 469.825 18.6811 471.826 19.8921C473.827 21.103 470.412 26.985 466.631 27.158C462.85 27.331 462.995 28.763 462.475 30.2719C461.956 31.7808 466.554 30.3873 467.67 31.3099C468.786 32.2326 470.566 34.693 469.748 39.6138C468.93 44.5346 470.864 47.1488 470.787 49.9937C470.71 52.8385 472.788 82.1424 475.982 82.1713C477.54 81.9022 478.724 72.5026 479.099 67.6395C479.474 62.7763 479.32 58.1246 479.099 56.2216C478.877 54.3186 479.916 48.9269 480.138 44.8037C480.359 40.6806 476.059 36.1731 482.216 36.4998C488.373 36.8266 487.189 34.2509 485.333 31.3099C483.476 28.3689 485.438 28.4554 485.486 26.6101C485.544 24.4188 488.199 23.9767 488.122 21.9007C488.045 19.8248 486.016 19.8248 481.946 21.0261C478.762 21.9584 478.945 23.6403 477.877 24.2074C475.732 25.3415 476.944 26.1776 477.858 28.5323C479.233 32.05 478.281 33.0687 479.099 34.4335C479.916 35.7982 486.295 35.2985 486.372 39.6234C486.448 43.9484 488.526 59.7584 488.449 65.5731C488.373 71.3877 490.45 80.5182 495.722 86.3328C500.994 92.1475 528.152 79.634 535.203 78.0289C542.255 76.4239 545.516 60.4985 561.177 67.6491C576.839 74.7996 609.451 104.988 630.789 117.472C652.126 129.957 627.258 119.375 604.814 110.207C582.371 101.038 575.906 121 563.255 127.852C550.605 134.705 548.893 140.433 535.203 141.346C521.514 142.269 505.4 145.027 524.813 136.156C544.227 127.285 544.294 123.076 549.749 120.586C555.203 118.097 561.36 118.78 565.333 120.586C569.306 122.393 591.933 139.539 613.126 141.346C634.319 143.153 635.127 144.133 638.061 148.612C640.995 153.091 649.076 152.293 656.763 156.916C664.449 161.539 662.285 164.749 670.27 167.296C678.254 169.843 683.661 168.305 684.815 172.486C685.97 176.667 686.633 179.281 696.244 184.942C705.854 190.602 702.362 191.583 705.595 200.511C708.827 209.44 713.348 210.564 703.517 211.929C693.685 213.294 686.479 215.908 704.556 218.157C722.632 220.406 747.49 210.862 727.413 211.929C718.322 211.814 712.906 210.862 715.984 215.043C719.063 219.224 721.064 229.402 714.945 236.841C708.827 244.28 717.504 243.482 732.608 249.297C747.711 255.111 751.935 248.528 758.582 253.449C765.23 258.37 766.932 259.946 775.206 264.867C783.479 269.787 789.193 272.546 787.673 277.322C786.153 282.099 776.908 277.274 776.245 285.626C775.581 293.978 774.984 298.332 766.894 290.816C758.803 283.3 748.26 281.282 758.582 278.36C768.904 275.439 772.753 272.824 777.284 277.322C781.815 281.82 788.635 282.762 793.907 286.664C799.179 290.566 801.546 294.478 804.297 303.272C807.048 312.066 805.701 312.864 810.531 312.614C815.36 312.364 817.871 319.986 827.154 320.918C836.438 321.85 828.857 325.32 795.985 321.956C777.957 320.668 797.091 326.358 788.712 327.146C780.333 327.934 764.739 326.502 755.465 327.146C746.191 327.79 740.4 317.9 726.374 315.728C712.348 313.546 722.738 322.648 710.789 324.032C698.841 325.416 697.947 329.77 719.101 332.336C740.256 334.902 742.622 331.99 751.309 333.374C759.996 334.758 741.882 327.242 732.608 322.994C723.334 318.736 727.192 307.078 719.101 308.462C711.011 309.846 718.13 314.498 701.439 302.234C684.738 289.97 675.233 281.426 675.464 292.892C675.686 304.358 675.387 310.49 680.659 317.804C685.931 325.118 686.893 325.07 686.893 325.07C686.893 325.07 706.412 328.29 691.049 329.222C675.686 330.154 665.44 332.884 666.114 334.412C666.787 335.94 679.399 338.371 678.581 344.792C677.764 351.212 693.791 355.565 701.439 356.209C709.087 356.853 700.765 349.491 701.439 347.906C702.112 346.32 697.648 341.332 691.049 342.716C684.45 344.1 684.738 350.971 671.309 347.906C657.879 344.84 659.947 347.56 652.607 349.981C645.267 352.403 626.613 357.046 637.022 351.019C647.422 344.993 645.613 340.438 646.373 337.526C647.133 334.614 645.469 332.432 639.1 327.146C632.732 321.86 632.107 317.746 629.75 305.348C627.393 292.95 630.327 289.278 632.867 298.082C635.406 306.886 647.104 329.76 633.906 328.184C620.707 326.608 630.183 337.622 631.828 340.64C633.473 343.657 622.169 341.476 625.594 348.944C629.018 356.411 633.146 358.228 622.477 355.171C611.808 352.115 610 349.636 605.853 358.285C601.707 366.945 598.417 383.591 591.308 376.969C584.198 370.347 587.585 376.623 572.606 378.007C569.056 381.919 571.702 387.743 552.866 385.273C534.029 382.803 530.586 386.705 525.852 378.007C521.119 369.309 530.441 356.892 528.969 341.678C527.497 326.454 521.235 326.348 533.125 318.842C545.016 311.336 536.675 296.842 541.437 284.588C546.199 272.334 547.363 258.437 550.788 265.905C554.213 273.372 553.905 273.17 553.905 273.17C553.905 273.17 550.48 288.836 564.294 290.816C578.109 292.796 573.482 282.013 582.996 286.664C592.51 291.316 581.053 291.21 592.347 301.196C603.641 311.182 593.52 320.418 601.697 327.146C609.874 333.873 596.195 331.99 596.503 340.64C596.81 349.29 592.626 358.977 593.386 363.475C594.146 367.973 595.002 366.532 594.425 367.627C593.847 368.723 595.743 375.874 598.58 365.551C601.418 355.229 592.626 354.672 591.308 343.754C589.99 332.835 582.39 331.836 578.84 340.64C575.29 349.443 572.144 355.565 572.606 362.437C573.068 369.309 577.339 367.57 572.606 372.817C567.873 378.065 562.351 372.615 550.788 374.893C539.224 377.171 533.856 380.919 524.813 387.349C515.771 393.779 513.962 389.223 509.229 388.387C504.496 387.551 505.948 402.573 494.683 395.653C483.418 388.733 468.545 397.527 464.553 389.425C460.561 381.323 463.649 338.506 462.475 331.298C461.302 324.09 469.142 329.616 479.099 351.019C489.056 372.423 489.181 371.875 489.488 378.007C489.796 384.139 489.027 383.889 493.644 389.425C498.262 394.961 498.83 400.343 484.294 399.805C469.758 399.267 461.725 396.989 448.969 395.653C436.212 394.317 412.585 368.56 409.488 330.26C406.39 291.96 396.654 280.331 403.254 272.132C409.853 263.934 383.494 221.511 390.786 224.385C398.078 227.259 412.585 253.343 415.721 261.753C418.858 270.162 426.438 279.293 444.813 293.93C463.187 308.568 455.876 313.546 456.241 318.842C456.607 324.138 453.086 328.059 445.852 334.412C438.598 340.784 437.309 425.13 432.345 345.83C426.534 294.488 439.252 305.588 425.072 292.892C410.892 280.196 401.849 270.643 453.124 264.867C504.4 259.09 490.162 312.854 497.8 279.398C505.439 245.943 496.742 245.039 520.658 247.221C544.573 249.402 549.73 239.849 577.801 251.373C605.873 262.896 631.808 253.343 617.282 246.183C602.756 239.023 597.522 240.887 604.814 235.803C612.106 230.719 607.566 226.009 594.425 221.271C581.283 216.533 581.245 219.781 589.23 194.283C597.214 168.786 590.596 177.57 619.36 172.486C648.124 167.402 629.384 157.848 563.255 154.84C497.127 151.832 629.384 192.448 525.852 195.321C422.311 198.195 375.519 184.144 411.556 173.524C447.593 162.904 431.277 153.35 413.634 149.65C395.991 145.95 399.415 137.78 384.543 130.966C369.67 124.152 360.281 131.553 347.14 119.548C333.999 107.544 327.034 113.907 303.503 107.093C279.972 100.278 290.67 94.877 272.334 91.5228C253.998 88.1685 251.881 91.071 246.359 89.4468C240.837 87.8225 233.872 91.763 223.502 90.4848C213.132 89.2065 203.396 80.6912 195.45 94.6367C187.504 108.582 185.041 115.291 192.333 114.358C199.625 113.426 233.18 113.215 255.71 124.738C278.24 136.262 286.167 147.122 297.269 145.498C308.371 143.874 318.722 154.388 334.672 165.22C350.622 176.051 329.458 154.734 351.296 149.65C373.133 144.566 344.696 132.245 285.84 119.548C226.984 106.852 222.444 106.295 214.151 110.207C205.859 114.118 197.162 118.405 222.463 123.7C247.764 128.996 229.37 142.278 267.139 158.992C304.907 175.705 324.263 174.456 313.893 170.41C303.522 166.364 311.795 165.46 297.269 163.144C282.743 160.828 243.916 138.472 250.515 154.84C257.115 171.207 277.163 182.068 311.815 188.056C346.466 194.043 421.936 228.777 358.568 210.891C295.21 193.005 272.661 187.95 246.35 184.942C220.048 181.933 202.694 194.524 177.778 210.891C152.862 227.259 146.936 230.853 162.193 253.449C177.451 276.044 203.367 294.555 207.908 303.272C212.449 311.989 236.614 315.315 265.051 310.538C293.488 305.761 278.519 290.749 274.402 273.17C270.285 255.592 269.169 236.774 261.934 229.575C254.7 222.376 233.151 201.136 260.895 217.119C288.64 233.102 287.87 246.462 306.61 247.221C325.35 247.98 359.906 240.926 366.871 249.297C373.835 257.668 370.988 270.681 377.26 279.398C383.533 288.116 379.646 295.593 385.572 307.424C391.498 319.255 404.235 339.534 398.04 336.488C391.844 333.441 400.425 347.146 397.001 359.323C393.576 371.5 389.699 372.673 460.378 407.071C531.057 441.469 579.494 498.615 661.948 518.145C705.267 529.361 656.032 508.659 650.519 500.499C645.007 492.339 612.395 504.853 558.051 491.157C503.707 477.462 471.441 467.14 570.519 533.715C669.596 600.3 572.548 549.227 466.612 558.627C360.675 568.026 320.761 501.134 247.379 533.715C214.873 556.608 131.313 602.174 107.108 565.892C82.9137 529.611 91.1293 499.75 75.9392 493.233C60.749 486.717 60.9991 489.024 89.4458 452.752C117.892 416.48 102.212 371.731 110.225 354.143C118.239 336.555 108.792 269.316 66.5884 253.458C24.385 237.6 67.233 240.599 44.77 232.699C22.307 224.798 11.8211 186.278 11.5229 229.585C11.2247 272.892 28.0984 287.318 17.7567 301.206C7.41511 315.103 6.27994 316.372 29.1854 362.447C52.0909 408.522 15.6307 427.792 44.77 450.676C73.9093 473.569 66.8866 481.767 85.2899 487.005C103.693 492.253 100.134 561.346 107.108 590.814C114.083 620.281 79.0657 621.655 48.9259 636.485C19.142 651.142 5.54881 646.644 18.7957 607.421C32.6871 566.277 42.2014 545.037 51.0038 527.496C60.6047 508.371 62.7596 543.72 64.0872 572.389C65.4244 601.27 51.9947 596.994 41.6531 605.355C31.3115 613.717 24.9814 595.956 61.3936 534.772C75.6409 515.8 80.0469 521.912 80.095 544.114C80.1431 566.315 84.8955 571.745 93.6017 582.519C102.308 593.303 125.069 615.687 80.095 633.381C35.121 651.084 10.0895 662.742 8.40599 648.951C6.72247 635.168 6.62627 614.293 2.17215 603.279C-2.28196 592.265 7.00145 583.548 12.5619 572.14C16.7755 563.499 33.6395 522.797 32.3023 542.038C30.9363 561.692 21.0179 579.963 19.9982 589.247C18.6899 601.174 12.408 589.238 10.4839 580.443C9.12749 574.273 3.85567 569.314 10.4839 551.38C17.1122 533.446 36.4101 510.841 42.6921 499.48C48.974 488.12 59.2675 471.051 60.3546 498.442C61.4417 525.834 79.3543 512.917 99.8355 478.721C120.317 444.515 122.298 437.49 138.277 463.151C154.256 488.812 157.624 490.783 170.486 476.645C183.348 462.517 195.719 462.055 217.239 481.835C238.76 501.614 250.785 395.624 274.383 425.783C297.981 455.943 327.332 495.28 400.108 519.202C472.884 543.134 658.783 572.783 624.535 543.076C590.298 513.368 566.305 513.609 551.807 501.556C537.31 489.504 536.521 484.891 521.677 493.253C506.833 501.614 502.928 495.963 495.703 477.683C488.478 459.403 483.88 451.675 463.495 440.315C443.11 428.955 431.931 401.852 404.274 390.492C376.616 379.132 330.112 350.645 295.172 343.782C260.232 336.92 263.955 339.573 268.159 333.403C272.363 327.232 273.305 329.885 282.704 331.327C292.103 332.768 295.124 336.805 285.821 336.517C276.518 336.228 252.526 334.037 240.106 329.251C227.687 324.464 209.928 312.585 192.314 311.605C174.699 310.624 145.858 315.699 133.092 302.263C120.326 288.827 107.762 263.108 94.6503 257.629C81.5381 252.151 50.9654 232.314 65.5591 235.832C80.1528 239.349 100.49 235.082 100.884 220.262C101.279 205.442 90.1 197.369 86.3385 187.046C82.577 176.724 75.208 173.841 43.7407 179.78C12.2733 185.72 22.2205 182.145 63.4811 189.122C104.742 196.1 71.7448 185.951 115.43 175.629C159.115 165.306 133.044 165.191 108.157 159.021C83.2697 152.85 86.2904 141.663 123.741 151.755C161.193 161.846 206.821 168.997 205.82 165.249C204.829 161.5 183.607 125.748 208.937 143.451C223.319 150.544 214.728 132.648 250.342 139.28C288.476 146.382 265.349 142.701 273.363 147.603C281.377 152.504 294.094 156.887 308.688 161.097C323.282 165.306 338.078 177.647 360.637 179.78C383.196 181.914 397.299 198.407 494.674 203.654C566.064 206.134 533.068 185.605 518.57 176.667C504.073 167.728 505.362 157.579 516.492 152.793"
        stroke="#606161" stroke-miterlimit="10" />
    <path fill-rule="evenodd" clip-rule="evenodd"
        d="M491.475 87.9842C491.254 94.4909 490.484 98.0661 489.397 101.843C487.896 107.072 487.521 106.216 477.968 105.995C468.415 105.774 468.3 104.919 465.501 105.995C462.701 107.072 464.664 110.109 464.462 114.299C464.26 118.489 466.482 115.558 475.89 115.337C485.299 115.116 485.703 110.628 489.397 113.261C493.091 115.895 489.079 121.008 489.397 125.717C489.714 130.426 494.842 137.5 493.553 143.363C492.437 149.052 496.593 147.044 495.631 153.743C495.554 157.327 496.593 160.538 496.67 167.236C496.747 173.935 495.409 181.595 495.631 182.806C495.852 184.017 487.838 183.373 486.28 185.92C484.722 188.467 491.85 186.785 494.592 186.958C497.343 187.131 500.008 183.22 495.631 182.806C491.254 182.393 489.916 181.739 490.436 178.654C490.955 175.569 490.955 165.43 490.436 163.084C489.916 160.739 486.357 153.858 486.28 151.667C486.203 149.475 484.866 145.554 482.124 146.477C479.382 147.399 481.749 149.12 475.89 149.591C470.032 150.062 471.657 160.538 474.851 161.008C478.045 161.479 481.162 161.124 482.124 156.857C483.086 152.589 480.71 149.418 472.773 149.591C469.878 150.062 468.839 148.668 467.578 147.515C466.318 146.361 465.279 150.456 463.423 156.857C461.566 163.257 458.305 172.551 458.228 175.54C458.151 178.539 457.266 182.633 454.072 182.806C450.878 182.979 448.502 186.487 455.111 185.92C461.72 185.353 464.539 183.373 460.306 182.806C456.073 182.239 450.878 183.815 451.994 178.654C453.11 173.493 454.293 154.598 456.15 147.515C457.708 140.133 459.786 132.358 460.306 128.831C460.825 125.304 458.449 109.522 466.539 110.147C474.187 109.878 467.203 119.018 473.812 122.603C480.421 126.188 489.474 126.13 488.358 109.109C486.953 104.986 489.176 103.448 482.124 102.881C475.073 102.314 476.111 102.554 471.734 102.881C467.357 103.208 463.788 103.15 462.384 99.7673C460.979 96.3842 461.268 85.5046 462.384 72.7796C463.5 60.0547 463.201 49.7613 462.384 44.754C461.566 39.737 459.93 34.0473 463.423 34.3741C466.915 34.7009 468.54 35.0853 469.656 30.2222C470.772 25.359 469.878 27.3773 466.539 26.0702C463.201 24.7631 464.827 25.1476 464.462 21.9183C464.096 18.689 458.593 13.8835 464.462 14.6524C470.33 15.4212 469.733 18.6313 471.734 19.8423C473.735 21.0533 470.32 26.9352 466.539 27.1082C462.759 27.2812 462.903 28.7132 462.384 30.2222C461.864 31.7311 466.463 30.3375 467.578 31.2602C468.694 32.1828 470.474 34.6432 469.656 39.5641C468.839 44.4849 470.772 47.0991 470.695 49.9439C470.618 52.7888 472.696 82.0927 475.89 82.1215C477.449 81.8524 478.632 72.4529 479.007 67.5897C479.382 62.7265 479.228 58.0748 479.007 56.1718C478.786 54.2689 479.825 48.8771 480.046 44.754C480.267 40.6309 475.967 36.1233 482.124 36.4501C488.281 36.7769 487.098 34.2011 485.241 31.2602C483.384 28.3192 485.347 28.4057 485.395 26.5604C485.453 24.3691 488.108 23.927 488.031 21.851C487.954 19.775 485.924 19.775 481.855 20.9764C478.67 21.9087 478.853 23.5906 477.785 24.1576C475.64 25.2917 476.852 26.1279 477.766 28.4826C479.142 32.0002 478.189 33.019 479.007 34.3837C479.825 35.7485 486.203 35.2487 486.28 39.5737C486.357 43.8986 487.781 59.7375 488.358 65.5233C489.204 73.9906 495.563 79.8245 486.896 87.8208"
        fill="#CC4429" class="human_fill" />
    <path class="human_stroke"
        d="M491.475 87.9842C491.254 94.4909 490.484 98.0661 489.397 101.843C487.896 107.072 487.521 106.216 477.968 105.995C468.415 105.774 468.3 104.919 465.501 105.995C462.701 107.072 464.664 110.109 464.462 114.299C464.26 118.489 466.482 115.558 475.89 115.337C485.299 115.116 485.703 110.628 489.397 113.261C493.091 115.895 489.079 121.008 489.397 125.717C489.714 130.426 494.842 137.5 493.553 143.363C492.437 149.052 496.593 147.044 495.631 153.743C495.554 157.327 496.593 160.538 496.67 167.236C496.747 173.935 495.409 181.595 495.631 182.806M495.631 182.806C495.852 184.017 487.838 183.373 486.28 185.92C484.722 188.467 491.85 186.785 494.592 186.958C497.343 187.131 500.008 183.22 495.631 182.806ZM495.631 182.806C491.254 182.393 489.916 181.739 490.436 178.654C490.955 175.569 490.955 165.43 490.436 163.084C489.916 160.739 486.357 153.858 486.28 151.667C486.203 149.475 484.866 145.554 482.124 146.477C479.382 147.399 481.749 149.12 475.89 149.591C470.032 150.062 471.657 160.538 474.851 161.009C478.045 161.479 481.162 161.124 482.124 156.857C483.086 152.589 480.71 149.418 472.773 149.591C469.878 150.062 468.839 148.668 467.578 147.515C466.318 146.361 465.279 150.456 463.423 156.857C461.566 163.257 458.305 172.551 458.228 175.54C458.151 178.539 457.266 182.633 454.072 182.806C450.878 182.979 448.502 186.487 455.111 185.92C461.72 185.353 464.539 183.373 460.306 182.806C456.073 182.239 450.878 183.815 451.994 178.654C453.11 173.493 454.293 154.598 456.15 147.515C457.708 140.133 459.786 132.358 460.306 128.831C460.825 125.304 458.449 109.522 466.539 110.147C474.187 109.878 467.203 119.018 473.812 122.603C480.421 126.188 489.474 126.13 488.358 109.109C486.953 104.986 489.176 103.448 482.124 102.881C475.073 102.314 476.111 102.554 471.734 102.881C467.357 103.208 463.788 103.15 462.384 99.7673C460.979 96.3842 461.268 85.5046 462.384 72.7796C463.5 60.0547 463.201 49.7613 462.384 44.754C461.566 39.737 459.93 34.0473 463.423 34.3741C466.915 34.7009 468.54 35.0853 469.656 30.2222C470.772 25.359 469.878 27.3773 466.539 26.0702C463.201 24.7631 464.827 25.1476 464.462 21.9183C464.096 18.689 458.593 13.8835 464.462 14.6524C470.33 15.4212 469.733 18.6313 471.734 19.8423C473.735 21.0533 470.32 26.9352 466.539 27.1082C462.759 27.2812 462.903 28.7132 462.384 30.2222C461.864 31.7311 466.463 30.3375 467.578 31.2602C468.694 32.1828 470.474 34.6432 469.656 39.5641C468.839 44.4849 470.772 47.0991 470.695 49.9439C470.618 52.7888 472.696 82.0927 475.89 82.1215C477.449 81.8524 478.632 72.4529 479.007 67.5897C479.382 62.7265 479.228 58.0748 479.007 56.1718C478.786 54.2689 479.825 48.8771 480.046 44.754C480.267 40.6309 475.967 36.1233 482.124 36.4501C488.281 36.7769 487.098 34.2011 485.241 31.2602C483.384 28.3192 485.347 28.4057 485.395 26.5604C485.453 24.3691 488.108 23.927 488.031 21.851C487.954 19.775 485.924 19.775 481.855 20.9764C478.67 21.9087 478.853 23.5906 477.785 24.1576C475.64 25.2917 476.852 26.1279 477.766 28.4826C479.142 32.0002 478.189 33.019 479.007 34.3837C479.825 35.7485 486.203 35.2487 486.28 39.5737C486.357 43.8986 487.781 59.7375 488.358 65.5233C489.204 73.9906 495.563 79.8245 486.896 87.8208"
        stroke="#CC4429" />
</svg>