<svg width="24" height="24" viewBox="0 0 24 24" fill="none" xmlns="http://www.w3.org/2000/svg">
<path d="M11.3603 23.218C11.167 21.9613 10.6063 20.608 9.6783 19.158C8.76963 17.708 7.4743 16.345 5.7923 15.069C4.09097 13.7737 2.44763 12.9713 0.862301 12.662V11.444C2.46697 11.0767 4.0233 10.3613 5.5313 9.298C7.0393 8.23467 8.3153 6.96833 9.3593 5.499C10.4033 4.01033 11.0703 2.49267 11.3603 0.946H12.5783C12.7523 1.932 13.1003 2.92767 13.6223 3.933C14.1636 4.93833 14.85 5.905 15.6813 6.833C16.5126 7.74167 17.431 8.56333 18.4363 9.298C19.9636 10.3807 21.5296 11.096 23.1343 11.444V12.662C22.0516 12.8747 20.94 13.3097 19.7993 13.967C18.678 14.6243 17.634 15.3977 16.6673 16.287C15.7006 17.1763 14.908 18.114 14.2893 19.1C13.342 20.608 12.7716 21.9807 12.5783 23.218H11.3603ZM11.7663 22.522H12.1723C12.269 21.5167 12.4236 20.5113 12.6363 19.506C12.8683 18.4813 13.1293 17.534 13.4193 16.664C13.7286 15.794 14.0476 15.0787 14.3763 14.518C15.0336 14.1507 15.8166 13.8123 16.7253 13.503C17.6533 13.1937 18.6103 12.9327 19.5963 12.72C20.6016 12.5073 21.5296 12.372 22.3803 12.314V11.908C21.5296 11.8307 20.592 11.6857 19.5673 11.473C18.562 11.241 17.5953 10.9703 16.6673 10.661C15.7393 10.3323 14.9756 9.994 14.3763 9.646C14.0476 9.066 13.7286 8.35067 13.4193 7.5C13.1293 6.63 12.8683 5.702 12.6363 4.716C12.4236 3.71067 12.269 2.70533 12.1723 1.7H11.7663C11.689 2.60867 11.544 3.556 11.3313 4.542C11.138 5.50867 10.8866 6.43667 10.5773 7.326C10.268 8.21533 9.92963 8.98867 9.5623 9.646C8.94363 9.994 8.17997 10.3323 7.2713 10.661C6.36263 10.9703 5.40563 11.241 4.4003 11.473C3.39497 11.6857 2.44763 11.8307 1.5583 11.908V12.314C2.44763 12.372 3.3853 12.5073 4.3713 12.72C5.3573 12.9327 6.30463 13.1937 7.2133 13.503C8.12197 13.8123 8.90497 14.1507 9.5623 14.518C9.92963 15.1367 10.2583 15.9003 10.5483 16.809C10.8576 17.6983 11.1186 18.6457 11.3313 19.651C11.544 20.637 11.689 21.594 11.7663 22.522Z" fill="#CC4429"/>
</svg>
