<svg width="19" height="63" viewBox="0 0 19 63" fill="none" xmlns="http://www.w3.org/2000/svg">
<g id="Vector">
<path fill-rule="evenodd" clip-rule="evenodd" d="M15.6641 27.1946C15.5858 29.4984 15.3133 30.7644 14.9284 32.1018C14.397 33.953 14.2642 33.6501 10.8817 33.5719C7.49928 33.4936 7.4584 33.1907 6.46718 33.5719C5.47595 33.953 6.17082 35.0284 6.09929 36.5121C6.02776 37.9958 6.81461 36.9579 10.146 36.8796C13.4773 36.8014 13.6204 35.2121 14.9284 36.1446C16.2364 37.077 14.816 38.8874 14.9284 40.5549C15.0408 42.2224 16.8563 44.7271 16.3999 46.8029C16.0048 48.8176 17.4763 48.1063 17.1356 50.4782C17.1084 51.7476 17.4763 52.8842 17.5035 55.2561C17.5308 57.6281 17.0573 60.3403 17.1356 60.7691C17.214 61.1979 14.3766 60.9699 13.8248 61.8717C13.2729 62.7735 15.797 62.1779 16.7678 62.2392C17.742 62.3005 18.6855 60.9154 17.1356 60.7691C15.5858 60.6227 15.1123 60.3913 15.2963 59.299C15.4802 58.2066 15.4802 54.6164 15.2963 53.786C15.1123 52.9557 13.852 50.5191 13.8248 49.7432C13.7975 48.9673 13.324 47.5788 12.3532 47.9055C11.3824 48.2322 12.2204 48.8414 10.146 49.0081C8.07153 49.1749 8.6472 52.8842 9.77808 53.051C10.909 53.2177 12.0126 53.0918 12.3532 51.5808C12.6939 50.0699 11.8525 48.9469 9.04233 49.0081C8.01703 49.1749 7.64916 48.6814 7.20293 48.2731C6.75671 47.8647 6.38883 49.3144 5.73142 51.5808C5.074 53.8473 3.91928 57.138 3.89203 58.1964C3.86478 59.2581 3.5514 60.7078 2.42051 60.7691C1.28962 60.8303 0.448266 62.0724 2.78838 61.8717C5.1285 61.6709 6.12655 60.9699 4.62778 60.7691C3.12902 60.5683 1.28962 61.1264 1.68475 59.299C2.07988 57.4715 2.49885 50.7811 3.15627 48.2731C3.70809 45.6595 4.44385 42.9065 4.62778 41.6575C4.81172 40.4086 3.97037 34.8208 6.83505 35.042C9.54305 34.9467 7.07008 38.183 9.4102 39.4523C11.7503 40.7217 14.9556 40.7013 14.5605 34.6745C14.0632 33.2146 14.85 32.6701 12.3532 32.4693C9.85643 32.2685 10.2243 32.3536 8.67444 32.4693C7.12458 32.585 5.86085 32.5646 5.36353 31.3667C4.86622 30.1688 4.9684 26.3166 5.36353 21.8109C5.75866 17.3053 5.65307 13.6606 5.36353 11.8876C5.074 10.1112 4.49494 8.09661 5.73142 8.21232C6.9679 8.32802 7.54355 8.46414 7.93868 6.7422C8.33381 5.02025 8.01703 5.73489 6.83505 5.27208C5.65307 4.80926 6.22873 4.94538 6.09929 3.80196C5.96985 2.65853 4.02146 0.957005 6.09929 1.22925C8.17712 1.50149 7.96593 2.63811 8.67444 3.0669C9.38295 3.49568 8.17372 5.57835 6.83505 5.63961C5.49638 5.70086 5.54747 6.20792 5.36353 6.7422C5.17959 7.27648 6.80781 6.78303 7.20293 7.10973C7.59806 7.43642 8.22822 8.3076 7.93868 10.05C7.64915 11.7923 8.33382 12.718 8.30657 13.7253C8.27932 14.7326 9.01507 25.1085 10.146 25.1187C10.6978 25.0234 11.1167 21.6952 11.2496 19.9733C11.3824 18.2513 11.3279 16.6042 11.2496 15.9304C11.1712 15.2566 11.5391 13.3475 11.6175 11.8876C11.6958 10.4277 10.1732 8.83167 12.3532 8.94738C14.5333 9.06308 14.1143 8.15106 13.4569 7.10973C12.7995 6.06839 13.4943 6.09902 13.5114 5.44563C13.5318 4.66974 14.4719 4.5132 14.4447 3.77814C14.4174 3.04308 13.6987 3.04308 12.2579 3.46846C11.1304 3.79856 11.1951 4.39409 10.817 4.59487C10.0574 4.99643 10.4866 5.2925 10.8102 6.12624C11.2973 7.37176 10.9601 7.73249 11.2496 8.21572C11.5391 8.69895 13.7975 8.52199 13.8248 10.0534C13.852 11.5847 14.3561 17.193 14.5605 19.2416C14.8603 22.2397 17.1118 24.3054 14.0427 27.1367" fill="#1E2123"/>
<path d="M15.6641 27.1946C15.5858 29.4984 15.3133 30.7644 14.9284 32.1018C14.397 33.953 14.2642 33.6501 10.8817 33.5719C7.49928 33.4936 7.4584 33.1907 6.46718 33.5719C5.47595 33.953 6.17082 35.0284 6.09929 36.5121C6.02776 37.9958 6.81461 36.9579 10.146 36.8796C13.4773 36.8014 13.6204 35.2121 14.9284 36.1446C16.2364 37.077 14.816 38.8874 14.9284 40.5549C15.0408 42.2224 16.8563 44.7271 16.3999 46.8029C16.0048 48.8176 17.4763 48.1063 17.1356 50.4782C17.1084 51.7476 17.4763 52.8842 17.5035 55.2561C17.5308 57.6281 17.0573 60.3403 17.1356 60.7691M17.1356 60.7691C17.214 61.1979 14.3766 60.9699 13.8248 61.8717C13.2729 62.7735 15.797 62.1779 16.7678 62.2392C17.742 62.3005 18.6855 60.9154 17.1356 60.7691ZM17.1356 60.7691C15.5858 60.6227 15.1123 60.3913 15.2963 59.299C15.4802 58.2066 15.4802 54.6164 15.2963 53.786C15.1123 52.9557 13.852 50.5191 13.8248 49.7432C13.7975 48.9673 13.324 47.5788 12.3532 47.9055C11.3824 48.2322 12.2204 48.8414 10.146 49.0081C8.07153 49.1749 8.6472 52.8842 9.77808 53.051C10.909 53.2177 12.0126 53.0918 12.3532 51.5808C12.6939 50.0699 11.8525 48.9469 9.04233 49.0081C8.01703 49.1749 7.64916 48.6814 7.20293 48.2731C6.75671 47.8647 6.38883 49.3144 5.73142 51.5808C5.074 53.8473 3.91928 57.138 3.89203 58.1964C3.86478 59.2581 3.5514 60.7078 2.42051 60.7691C1.28962 60.8303 0.448266 62.0724 2.78838 61.8717C5.1285 61.6709 6.12655 60.9699 4.62778 60.7691C3.12902 60.5683 1.28962 61.1264 1.68475 59.299C2.07988 57.4715 2.49885 50.7811 3.15627 48.2731C3.70809 45.6595 4.44385 42.9065 4.62778 41.6575C4.81172 40.4086 3.97037 34.8208 6.83505 35.042C9.54305 34.9467 7.07008 38.183 9.4102 39.4523C11.7503 40.7217 14.9556 40.7013 14.5605 34.6745C14.0632 33.2146 14.85 32.6701 12.3532 32.4693C9.85643 32.2685 10.2243 32.3536 8.67444 32.4693C7.12458 32.585 5.86085 32.5646 5.36353 31.3667C4.86622 30.1688 4.9684 26.3166 5.36353 21.8109C5.75866 17.3053 5.65307 13.6606 5.36353 11.8876C5.074 10.1112 4.49494 8.09661 5.73142 8.21232C6.9679 8.32802 7.54355 8.46414 7.93868 6.7422C8.33381 5.02025 8.01703 5.73489 6.83505 5.27208C5.65307 4.80926 6.22873 4.94538 6.09929 3.80196C5.96985 2.65853 4.02146 0.957005 6.09929 1.22925C8.17712 1.50149 7.96593 2.63811 8.67444 3.0669C9.38295 3.49568 8.17372 5.57835 6.83505 5.63961C5.49638 5.70086 5.54747 6.20792 5.36353 6.7422C5.17959 7.27648 6.80781 6.78303 7.20293 7.10973C7.59806 7.43642 8.22822 8.3076 7.93868 10.05C7.64915 11.7923 8.33382 12.718 8.30657 13.7253C8.27932 14.7326 9.01507 25.1085 10.146 25.1187C10.6978 25.0234 11.1167 21.6952 11.2496 19.9733C11.3824 18.2513 11.3279 16.6042 11.2496 15.9304C11.1712 15.2566 11.5391 13.3475 11.6175 11.8876C11.6958 10.4277 10.1732 8.83167 12.3532 8.94738C14.5333 9.06308 14.1143 8.15106 13.4569 7.10973C12.7995 6.06839 13.4943 6.09902 13.5114 5.44563C13.5318 4.66974 14.4719 4.5132 14.4447 3.77814C14.4174 3.04308 13.6987 3.04308 12.2579 3.46846C11.1304 3.79856 11.1951 4.39409 10.817 4.59487C10.0574 4.99643 10.4866 5.2925 10.8102 6.12624C11.2973 7.37176 10.9601 7.73249 11.2496 8.21572C11.5391 8.69895 13.7975 8.52199 13.8248 10.0534C13.852 11.5847 14.3561 17.193 14.5605 19.2416C14.8603 22.2397 17.1118 24.3054 14.0427 27.1367" stroke="#CC4429"/>
</g>
</svg>
