<svg width="22" height="22" viewBox="0 0 22 22" fill="none" xmlns="http://www.w3.org/2000/svg">
<g clip-path="url(#clip0_123_25)">
<path d="M21.533 0.467285H0.467773V21.5325H21.533V0.467285Z" stroke="#D2E7FA" stroke-width="2" stroke-miterlimit="10"/>
<path d="M11 15.8779C13.694 15.8779 15.8779 13.694 15.8779 11C15.8779 8.30599 13.694 6.12207 11 6.12207C8.30599 6.12207 6.12207 8.30599 6.12207 11C6.12207 13.694 8.30599 15.8779 11 15.8779Z" stroke="#D2E7FA" stroke-width="2" stroke-miterlimit="10"/>
<path d="M17.254 5.44411C17.8975 5.44411 18.4192 4.92245 18.4192 4.27894C18.4192 3.63543 17.8975 3.11377 17.254 3.11377C16.6105 3.11377 16.0889 3.63543 16.0889 4.27894C16.0889 4.92245 16.6105 5.44411 17.254 5.44411Z" fill="#D2E7FA"/>
</g>
<defs>
<clipPath id="clip0_123_25">
<rect width="22" height="22" fill="white"/>
</clipPath>
</defs>
</svg>
