<?xml version="1.0" encoding="UTF-8"?>
<svg id="Warstwa_1" data-name="Warstwa 1" xmlns="http://www.w3.org/2000/svg" viewBox="0 0 326.51 324.1">
  <defs>
    <style>
      .cls-1 {
        fill: #fff;
      }

      .cls-2 {
        fill: none;
        fill-rule: evenodd;
        stroke: #606161;
        stroke-miterlimit: 10;
        stroke-width: 1.04px;
      }
    </style>
  </defs>
  <rect class="cls-1" width="326.51" height="324.1"/>
  <path class="cls-2" d="M-389.52,862.32s52.46-56.73,34.16-168.35c-18.3-111.62-53.07-112.23-135.41-147.61-82.35-35.38-97.6-101.87-140.29-117.11-42.7-15.25,2.44-82.96,80.52-79.3,78.08,3.66,104.91-16.47,80.52-43.92-24.4-27.45-108.79-45.29-185.43-80.52-75.86-34.87-24.92-35.22-55.16,54.42-27.54,81.62,24.05,16.34,102.73,24.88,78.69,8.54,100.04,19.52,170.79,37.82,70.76,18.3,112.23-1.83,175.67,36.6,63.44,38.43,156.76,31.11,191.53,62.22,34.77,31.11,129.92,20.13,175.67,14.64,45.75-5.49,65.02-10.73-3.66-40.26-153.59-66.03-112.84-71.62-40.26-69.54,64.05,1.84,16.47,12.2,40.26,26.84,23.79,14.64,32.33-2.44,101.26,4.88,68.93,7.32,85.4,1.83,118.33,3.66,32.94,1.83,32.94,7.32,12.2-9.76-10.37-9.76-17.69-5.49-21.96-14.64-4.27-9.15-20.13-15.25-39.04-21.96-18.91-6.71-6.1,5.49-24.4-13.42-18.3-18.91-7.93,5.49-28.06,1.22-20.13-4.27-9.15-10.98-20.74-13.42-11.59-2.44-29.28-4.88-39.04-19.52-9.76-14.64,0-12.2-12.2-17.08-12.2-4.88-17.08-44.53-37.82-52.46-20.74-7.93-17.08-18.91-31.72-24.4-14.64-5.49-20.74-14.64-26.84-19.52-6.1-4.88-55.51-33.55-74.42-35.38-18.91-1.83,0,7.32-9.76,3.66-9.76-3.66-3.05,13.42-19.52,7.32-16.47-6.1-11.59-11.59-24.4-8.54-12.81,3.05-8.54,6.71-19.52,7.32-10.98,.61-7.32,17.08-36.6,28.06-13.48,5.05-22.56,8.56-30.22,11.58-2,.79-5.74,5.98-7.6,6.72-6.5,2.59-17.4-3.19-24.4,1.22-10.98,6.91-17.08,24.4-43.92,28.06-26.84,3.66-33.55,6.71-43.92,13.42-10.37,6.71-50.63,22.57-81.74,18.3-31.11-4.27-34.16-6.71-18.3-7.32,15.86-.61,18.91-2.44,17.08-9.76-1.83-7.32-6.1-11.59,18.3-14.64,24.4-3.05,41.48-6.71,14.64-10.98-26.84-4.27-40.87-10.37-59.78-19.52s-13.42-2.44-21.96-3.66-10.98,5.49-26.84,7.32c-15.86,1.83-9.15,10.98-30.5,17.08-21.35,6.1-21.35,3.05-23.18,7.32-1.83,4.27-35.38,7.93-1.22,9.76,34.16,1.83,81.13,5.49,109.79,6.1,28.67,.61,37.82,3.05,69.54-8.54,7.32-3.66-.61-9.15,13.42-12.2,14.03-3.05,10.37-1.22,29.28,0,12.36,.8,55.48-11.53,76.86-4.88,9.08,2.83,13.12-4.25,13.41-2.93,.37,1.68,2.35,1.72,5.13,.97,2.64-.71,4.91-3.99,8.29-5.37,3.04-1.24,7.19-.57,9.76-1.22,92.11-23.18,33.55-18.3,78.08-43.92,9.76-6.71,5.49-17.08,34.16,4.88,28.67,21.96,33.55,14.03,42.7,26.84,7.32,5.49,9.15-10.98,30.5,15.86,21.35,26.84,50.63,36.6,67.1,54.9,16.47,18.3,16.47,39.04,10.98,57.34-5.49,18.3-.61,38.43,10.98,46.36,11.59,7.93,15.86,1.83,10.98-14.64-4.88-16.47-6.1-17.69-45.14-41.48-39.04-23.79-14.64-20.74-28.06-30.5-13.42-9.76-31.72-20.13-41.48-31.72-9.76-11.59-26.33-33.55,4.88-14.64,31.21,18.91,35.07,22.98,48.8,28.06s-3.15-3.46-15.86-1.22c-12.31,2.17-49.92-37.21-61-50.02-11.08-12.81-30.4-12.4-47.58-28.06-17.18-15.66-15.35-3.05-20.74,12.2-5.39,15.25-49.1,11.59-47.58,10.98,1.52-.61-32.09,10.63-31.72,25.62,.38,14.99-.68,20.69-2.44,26.84-1.76,6.15-2.2,5.14-13.42,4.88-11.21-.26-11.35-1.27-14.64,0-3.28,1.27-.98,4.83-1.22,9.76-.23,4.93,2.37,1.48,13.42,1.22,11.05-.26,11.52-5.54,15.86-2.44,4.34,3.1-.38,9.1,0,14.64,.38,5.54,6.39,13.85,4.88,20.74-1.31,6.69,3.57,4.32,2.44,12.2-.09,4.22,1.13,7.98,1.22,15.86,.09,7.88-1.48,16.87-1.22,18.3s-9.15,.66-10.98,3.66c-1.83,3,6.53,1.01,9.76,1.22,3.23,.21,6.36-4.39,1.22-4.88-5.14-.49-6.71-1.25-6.1-4.88s.61-15.54,0-18.3-4.79-10.84-4.88-13.42c-.09-2.58-1.66-7.18-4.88-6.1-3.22,1.08-.44,3.1-7.32,3.66-6.88,.56-4.97,12.86-1.22,13.42,3.75,.56,7.41,.14,8.54-4.88,1.13-5.02-1.66-8.75-10.98-8.54-3.4,.56-4.62-1.08-6.1-2.44-1.48-1.36-2.7,3.45-4.88,10.98-2.18,7.53-6.01,18.44-6.1,21.96s-1.13,8.33-4.88,8.54c-3.75,.21-6.54,4.32,1.22,3.66,7.76-.66,11.07-3,6.1-3.66-4.97-.66-11.07,1.19-9.76-4.88,1.31-6.07,2.7-28.27,4.88-36.6,1.83-8.68,4.27-17.81,4.88-21.96,.61-4.15-2.18-22.69,7.32-21.96,8.98-.31,.78,10.42,8.54,14.64,7.76,4.22,18.39,4.15,17.08-15.86-1.65-4.85,.96-6.66-7.32-7.32s-7.06-.38-12.2,0c-5.14,.38-9.32,.31-10.98-3.66-1.65-3.97-1.31-16.76,0-31.72,1.31-14.95,.96-27.05,0-32.94-.96-5.89-2.88-12.58,1.22-12.2,4.1,.38,6.01,.84,7.32-4.88,1.31-5.72,.26-3.35-3.66-4.88s-2.01-1.08-2.44-4.88c-.43-3.8-6.88-9.44,0-8.54,6.88,.91,6.19,4.67,8.54,6.1s-1.66,8.33-6.1,8.54c-4.44,.21-4.27,1.88-4.88,3.66-.61,1.78,4.79,.14,6.1,1.22,1.31,1.08,3.4,3.97,2.44,9.76-.96,5.78,1.31,8.85,1.22,12.2-.09,3.35,2.35,37.78,6.1,37.82,1.83-.31,3.22-11.36,3.66-17.08,.44-5.72,.26-11.19,0-13.42s.96-8.57,1.22-13.42-4.79-10.14,2.44-9.76c7.23,.38,5.84-2.65,3.66-6.1-2.18-3.45,.12-3.35,.18-5.52,.07-2.58,3.18-3.09,3.09-5.54s-2.47-2.44-7.25-1.03c-3.74,1.1-3.53,3.07-4.78,3.74-2.52,1.33-1.1,2.32-.02,5.08,1.61,4.14,.5,5.33,1.45,6.93,.96,1.6,8.45,1.01,8.54,6.1,.09,5.09,2.53,23.67,2.44,30.5-.09,6.83,2.35,17.57,8.54,24.4,6.19,6.83,38.08-7.88,46.36-9.76,8.28-1.88,12.11-20.6,30.5-12.2,18.39,8.4,56.68,43.88,81.74,58.56,25.06,14.67-4.14,2.23-30.5-8.54-26.36-10.77-33.94,12.69-48.8,20.74-14.85,8.05-16.86,14.78-32.94,15.86-16.07,1.08-34.99,4.32-12.2-6.1,22.79-10.42,22.87-15.37,29.28-18.3,6.41-2.93,13.63-2.13,18.3,0,4.67,2.12,31.24,22.27,56.12,24.4,24.88,2.13,25.83,3.28,29.28,8.54,3.45,5.26,12.94,4.32,21.96,9.76s6.49,9.2,15.86,12.2c9.37,3,15.73,1.19,17.08,6.1,1.35,4.91,2.13,7.98,13.42,14.64,11.29,6.66,7.19,7.81,10.98,18.3,3.79,10.49,9.1,11.82-2.44,13.42-11.54,1.6-20,4.67,1.22,7.32,21.22,2.65,50.41-8.57,26.84-7.32-10.67-.14-17.04-1.25-13.42,3.66,3.62,4.91,5.97,16.87-1.22,25.62-7.19,8.75,3,7.81,20.74,14.64,17.74,6.83,22.7-.91,30.5,4.88,7.8,5.78,9.8,7.63,19.52,13.42,9.72,5.78,16.42,9.03,14.64,14.64-1.78,5.61-12.64-.06-13.42,9.76-.78,9.82-1.48,14.93-10.98,6.1-9.49-8.83-21.87-11.21-9.76-14.64,12.12-3.43,16.64-6.5,21.96-1.22,5.32,5.28,13.33,6.39,19.52,10.98,6.19,4.59,8.97,9.18,12.2,19.52,3.23,10.34,1.65,11.27,7.32,10.98,5.67-.29,8.62,8.66,19.52,9.76,10.9,1.1,2,5.17-36.6,1.22-21.17-1.51,1.3,5.17-8.54,6.1-9.84,.93-28.15-.75-39.04,0-10.89,.75-17.69-10.86-34.16-13.42-16.47-2.56-4.27,8.14-18.3,9.76-14.03,1.62-15.08,6.74,9.76,9.76,24.84,3.02,27.62-.4,37.82,1.22,10.2,1.62-11.07-7.2-21.96-12.2-10.89-5-6.36-18.7-15.86-17.08-9.49,1.62-1.14,7.09-20.74-7.32-19.6-14.41-30.76-24.45-30.5-10.98,.26,13.47-.09,20.68,6.1,29.28s7.32,8.54,7.32,8.54c0,0,22.91,3.78,4.88,4.88-18.03,1.1-30.07,4.3-29.28,6.1,.79,1.8,15.59,4.65,14.64,12.2s17.86,12.67,26.84,13.42c8.98,.75-.79-7.9,0-9.76,.79-1.86-4.45-7.72-12.2-6.1-7.75,1.62-7.41,9.7-23.18,6.1-15.77-3.6-13.34-.4-21.96,2.44-8.62,2.84-30.51,8.3-18.3,1.22,12.22-7.08,10.09-12.44,10.98-15.86,.89-3.42-1.06-5.99-8.54-12.2-7.48-6.21-8.21-11.04-10.98-25.62-2.77-14.58,.68-18.89,3.66-8.54,2.98,10.35,16.71,37.23,1.22,35.38-15.49-1.85-4.37,11.09-2.44,14.64,1.93,3.55-11.34,.98-7.32,9.76,4.02,8.78,8.87,10.92-3.66,7.32-12.53-3.6-14.66-6.51-19.52,3.66-4.86,10.17-8.73,29.74-17.08,21.96s-4.37-.41-21.96,1.22c-4.17,4.59-1.06,11.44-23.18,8.54-22.12-2.9-26.16,1.68-31.72-8.54-5.56-10.22,5.39-24.81,3.66-42.7-1.73-17.89-9.08-18.01,4.88-26.84,13.96-8.82,4.17-25.86,9.76-40.26,5.59-14.4,6.95-30.74,10.98-21.96,4.02,8.78,3.66,8.54,3.66,8.54,0,0-4.02,18.41,12.2,20.74,16.22,2.33,10.79-10.35,21.96-4.88s-2.28,5.34,10.98,17.08c13.26,11.74,1.38,22.59,10.98,30.5,9.6,7.91-6.46,5.69-6.1,15.86,.36,10.17-4.55,21.55-3.66,26.84,.89,5.29,1.9,3.6,1.22,4.88s1.55,9.7,4.88-2.44c3.33-12.14-6.99-12.79-8.54-25.62-1.55-12.83-10.47-14.01-14.64-3.66-4.17,10.35-7.86,17.54-7.32,25.62,.54,8.08,5.56,6.04,0,12.2-5.56,6.16-12.04-.24-25.62,2.44-13.58,2.68-19.88,7.08-30.5,14.64-10.61,7.56-12.74,2.2-18.3,1.22-5.56-.98-3.85,16.67-17.08,8.54-13.23-8.13-30.69,2.2-35.38-7.32-4.69-9.52-1.06-59.84-2.44-68.32-1.38-8.48,7.83-1.98,19.52,23.18,11.69,25.16,11.83,24.51,12.2,31.72,.36,7.21-.54,6.91,4.88,13.42,5.42,6.51,6.08,12.83-10.98,12.2-17.06-.63-26.5-3.31-41.48-4.88-14.98-1.57-42.72-31.84-46.36-76.86s-15.07-58.68-7.32-68.32c7.75-9.64-23.2-59.49-14.64-56.12s25.6,34.04,29.28,43.92c3.68,9.88,12.58,20.62,34.16,37.82,21.57,17.2,12.99,23.06,13.42,29.28,.43,6.22-3.7,10.83-12.2,18.3-8.52,7.48-10.03,106.61-15.86,13.42-6.82-60.34,8.11-47.29-8.54-62.22-16.65-14.92-27.27-26.15,32.94-32.94,60.21-6.79,43.49,56.4,52.46,17.08,8.97-39.32-1.24-40.38,26.84-37.82,28.08,2.56,34.14-8.66,67.1,4.88,32.96,13.54,63.42,2.32,46.36-6.1-17.06-8.42-23.2-6.22-14.64-12.2,8.56-5.98,3.23-11.51-12.2-17.08-15.43-5.57-15.47-1.75-6.1-31.72,9.37-29.97,1.6-19.64,35.38-25.62,33.77-5.98,11.77-17.2-65.88-20.74s77.65,44.2-43.92,47.58c-121.57,3.38-176.51-13.13-134.19-25.62,42.31-12.48,23.16-23.71,2.44-28.06-20.72-4.35-16.69-13.95-34.16-21.96-17.46-8.01-28.49,.69-43.92-13.42-15.43-14.11-23.61-6.63-51.24-14.64-27.63-8.01-15.07-14.35-36.6-18.3-21.53-3.94-24.01-.53-30.5-2.44-6.48-1.91-14.66,2.72-26.84,1.22-12.18-1.5-23.61-11.51-32.94,4.88-9.33,16.39-12.22,24.28-3.66,23.18,8.56-1.1,47.96-1.34,74.42,12.2,26.45,13.54,35.76,26.31,48.8,24.4,13.03-1.91,25.19,10.45,43.92,23.18,18.73,12.73-6.12-12.32,19.52-18.3,25.64-5.98-7.75-20.45-76.86-35.38-69.11-14.92-74.44-15.57-84.18-10.98s-19.95,9.64,9.76,15.86c29.71,6.22,8.11,21.84,52.46,41.48,44.35,19.64,67.08,18.18,54.9,13.42-12.18-4.76-2.46-5.82-19.52-8.54-17.06-2.72-62.65-28.99-54.9-9.76,7.75,19.23,31.29,32,71.98,39.04,40.69,7.04,129.29,47.86,54.9,26.84-74.39-21.02-100.87-26.96-131.75-30.5-30.88-3.54-51.26,11.26-80.52,30.5-29.26,19.23-36.21,23.46-18.3,50.02,17.91,26.55,48.35,48.31,53.68,58.56s33.71,14.15,67.1,8.54c33.39-5.61,15.81-23.26,10.98-43.92s-6.15-42.78-14.64-51.24c-8.49-8.46-33.8-33.43-1.22-14.64,32.58,18.79,31.67,34.48,53.68,35.38,22,.89,62.58-7.4,70.76,2.44,8.18,9.84,4.83,25.13,12.2,35.38,7.37,10.25,2.8,19.03,9.76,32.94,6.96,13.91,21.91,37.74,14.64,34.16s2.8,12.53-1.22,26.84c-4.02,14.31-8.57,15.69,74.42,56.12s139.85,107.59,236.67,130.53c50.86,13.19-6.95-11.15-13.42-20.74-6.47-9.59-44.76,5.11-108.57-10.98-63.81-16.09-101.7-28.23,14.64,50.02,116.33,78.25,2.39,18.24-121.99,29.28-124.38,11.04-171.25-67.57-257.41-29.28-38.17,26.9-136.28,80.45-164.69,37.82-28.41-42.63-18.76-77.73-36.6-85.4-17.84-7.66-17.54-4.94,15.86-47.58,33.4-42.63,14.99-95.22,24.4-115.89,9.41-20.68-1.68-99.69-51.24-118.33-49.56-18.64,.76-15.11-25.62-24.4-26.38-9.29-38.68-54.55-39.04-3.66-.35,50.89,19.47,67.85,7.32,84.18-12.15,16.33-13.47,17.83,13.42,71.98,26.89,54.15-15.91,76.79,18.3,103.69,34.21,26.9,25.97,36.54,47.58,42.7,21.61,6.16,17.43,87.37,25.62,121.99,8.19,34.63-32.93,36.25-68.32,53.68-34.97,17.22-50.93,11.94-35.38-34.16,16.32-48.35,27.48-73.32,37.82-93.94,11.27-22.48,13.8,19.06,15.36,52.76,1.57,33.94-14.19,28.91-26.34,38.74-12.15,9.82-19.57-11.04,23.18-82.96,16.73-22.3,21.91-15.11,21.96,10.98,.05,26.09,5.64,32.47,15.86,45.14,10.22,12.67,36.95,38.97-15.86,59.78-52.81,20.8-82.2,34.5-84.18,18.3-1.98-16.2-2.09-40.73-7.32-53.68-5.23-12.95,5.67-23.19,12.2-36.6,4.95-10.15,24.75-57.99,23.18-35.38-1.6,23.1-13.25,44.57-14.44,55.48-1.54,14.02-8.91-.02-11.18-10.34-1.59-7.25-7.78-13.08,0-34.16,7.78-21.08,30.45-47.64,37.82-61,7.37-13.36,19.47-33.41,20.74-1.22,1.27,32.19,22.31,17.02,46.36-23.18,24.05-40.19,26.38-48.45,45.14-18.3,18.76,30.16,22.72,32.47,37.82,15.86,15.1-16.61,29.63-17.14,54.9,6.1,25.27,23.24,39.39-101.32,67.1-65.88,27.71,35.44,62.16,81.67,147.61,109.79,85.45,28.12,303.71,62.97,263.51,28.06-40.2-34.91-68.37-34.63-85.4-48.8-17.03-14.17-17.95-19.58-35.38-9.76-17.43,9.82-22.01,3.19-30.5-18.3-8.49-21.49-13.88-30.56-37.82-43.92-23.94-13.36-37.06-45.2-69.54-58.56s-87.08-46.83-128.09-54.9c-41.02-8.07-36.65-4.94-31.72-12.2,4.93-7.26,6.05-4.13,17.08-2.44,11.03,1.69,14.59,6.44,3.66,6.1-10.93-.34-39.09-2.91-53.68-8.54-14.59-5.63-35.43-19.58-56.12-20.74-20.69-1.16-54.54,4.82-69.54-10.98-14.99-15.8-29.74-46.01-45.14-52.46-15.4-6.44-51.29-29.75-34.16-25.62,17.13,4.13,41.02-.88,41.48-18.3,.46-17.42-12.66-26.9-17.08-39.04-4.42-12.14-13.07-15.52-50.02-8.54-36.95,6.98-25.27,2.78,23.18,10.98,48.44,8.2,9.71-3.72,61-15.86,51.29-12.14,20.69-12.26-8.54-19.52-29.23-7.26-25.67-20.4,18.3-8.54,43.97,11.86,97.54,20.27,96.38,15.86-1.17-4.41-26.08-46.42,3.66-25.62,16.89,8.34,6.8-12.7,48.61-4.9,44.77,8.35,17.62,4.02,27.03,9.78,9.41,5.76,24.35,10.92,41.48,15.86,17.13,4.94,34.51,19.46,61,21.96,26.49,2.5,43.05,21.9,157.37,28.06,83.82,2.91,45.08-21.21,28.06-31.72-17.03-10.51-15.51-22.43-2.44-28.06"/>
</svg>