<svg width="106" height="666" viewBox="0 0 106 666" fill="none" xmlns="http://www.w3.org/2000/svg">
<g clip-path="url(#clip0_22_192)">
<path d="M75 11H31V22H75V11Z" fill="#D2E7FA"/>
</g>
<g clip-path="url(#clip1_22_192)">
<path d="M37.0462 109.551C39.003 111.253 41.373 112.109 44.1515 112.109C47.6852 112.109 50.44 110.827 52.4158 108.26C54.3916 105.697 55.6787 101.551 56.2772 95.831L57.2366 86.9597C57.5738 83.8278 58.1105 81.6805 58.8419 80.5277C59.5734 79.3749 60.6183 78.796 61.9719 78.796C63.7007 78.796 65.0449 79.8053 66.0043 81.824C66.9637 83.8427 67.4434 86.5936 67.4434 90.0768C67.4434 92.4665 67.1537 94.5693 66.5695 96.395C65.9853 98.2158 65.1589 99.6654 64.0855 100.744C63.0121 101.823 61.7629 102.476 60.3333 102.713V112.821C63.2638 112.663 65.8333 111.629 68.0323 109.709C70.2314 107.79 71.946 105.167 73.1666 101.837C74.3873 98.5077 75 94.6485 75 90.2648C75 85.8811 74.4158 82.1951 73.2521 78.984C72.0885 75.7729 70.4404 73.2744 68.3173 71.4932C66.1943 69.712 63.7197 68.8214 60.8985 68.8214C58.5285 68.8214 56.5764 69.3409 55.0328 70.3799C53.4892 71.419 52.259 73.1408 51.3376 75.5503C50.4162 77.9598 49.7513 81.2006 49.3333 85.2726L48.2599 94.4951C47.9227 97.3153 47.405 99.2845 46.7068 100.398C46.0134 101.516 45.0254 102.07 43.7478 102.07C42.095 102.07 40.8173 101.13 39.9102 99.2498C39.0077 97.3697 38.5565 94.8414 38.5565 91.6699C38.5565 89.3989 38.8083 87.4199 39.3165 85.7376C39.8247 84.0554 40.5371 82.7344 41.4585 81.7696C42.3799 80.8097 43.4628 80.2308 44.7025 80.0379V69.9346C41.9572 70.093 39.5587 71.1122 37.5116 72.9874C35.4646 74.8675 33.864 77.3958 32.7193 80.5673C31.5747 83.7388 31 87.3654 31 91.4374C31 95.5094 31.5177 99.2696 32.5531 102.367C33.5885 105.459 35.0846 107.859 37.0367 109.566L37.0462 109.551Z" fill="#D2E7FA"/>
</g>
<g clip-path="url(#clip2_22_192)">
<path d="M75 159.643H66.7296V187.634L56.814 186.121V161.41H49.1859V186.121L39.2753 187.634V159.931H31V198.143L53 194.834L75 198.143V159.643Z" fill="#D2E7FA"/>
</g>
<g clip-path="url(#clip3_22_192)">
<path d="M75 270.751C75 265.61 74.081 261.108 72.2432 257.241C70.4053 253.373 67.8363 250.364 64.5261 248.202C61.2209 246.045 57.3772 244.964 53 244.964C48.6227 244.964 44.7296 246.045 41.4442 248.202C38.1587 250.359 35.5996 253.373 33.7568 257.241C31.9189 261.108 31 265.61 31 270.751V291.714H75V270.751ZM66.201 281.763H39.799V269.988C39.799 267.003 40.3474 264.385 41.4442 262.129C42.541 259.873 44.0774 258.138 46.0487 256.918C48.0249 255.704 50.342 255.094 53 255.094C55.658 255.094 57.9256 255.704 59.9216 256.918C61.9176 258.133 63.4639 259.873 64.5558 262.129C65.6526 264.385 66.201 267.008 66.201 269.988V281.763Z" fill="#D2E7FA"/>
</g>
<g clip-path="url(#clip4_22_192)">
<path d="M75 338.536H66.7296V366.527L56.814 365.014V340.303H49.1859V365.014L39.2753 366.527V338.824H31V377.036L53 373.726L75 377.036V338.536Z" fill="#D2E7FA"/>
</g>
<g clip-path="url(#clip5_22_192)">
<path d="M75 435.178V423.857L57.9819 437.166C57.7003 435.523 57.231 434.004 56.5493 432.62C55.3983 430.267 53.8027 428.428 51.7675 427.101C49.7322 425.774 47.366 425.108 44.6688 425.108C41.9716 425.108 39.5461 425.774 37.5108 427.101C35.4756 428.428 33.8849 430.267 32.7289 432.62C31.5779 434.972 31 437.703 31 440.812V465.107H75V455.434H58.2832V448.023L75 435.178ZM50.5374 455.434H38.8643V441.953C38.8643 439.792 39.3732 438.077 40.3908 436.802C41.4084 435.533 42.8361 434.896 44.6737 434.896C46.5114 434.896 47.9489 435.533 48.9863 436.802C50.0237 438.072 50.5424 439.787 50.5424 441.953V455.434H50.5374Z" fill="#D2E7FA"/>
</g>
<path d="M31 512.212V550.428L53 547.119L75 550.428V511.928H66.7296V539.92L56.814 538.407V513.696H49.1859V538.407L39.2753 539.92V512.212H31Z" fill="#D2E7FA"/>
<g clip-path="url(#clip6_22_192)">
<path d="M61.107 597.255C52.8577 597.255 51.9547 606.526 51.8565 608.551C51.8418 608.863 51.8173 609.18 51.7829 609.492L50.1389 624.438C49.9574 625.444 49.7513 626.508 49.5304 627.638C48.6225 632.223 44.8978 632.313 44.8978 632.313C39.7794 632.313 37.9489 627.083 37.9489 620.625C37.9489 614.167 39.7794 608.937 44.8978 608.937H49.5304L44.8978 597.25H31L34.4646 605.991C32.3839 609.997 31 615.083 31 620.625C31 633.531 38.4985 643.995 44.8978 643.995C53.1472 643.995 54.0502 634.724 54.1483 632.699C54.163 632.387 54.1876 632.07 54.2219 631.758L55.8659 616.812C56.0475 615.806 56.2487 614.742 56.4744 613.612C57.3823 609.027 61.107 608.937 61.107 608.937C66.2255 608.937 68.056 614.167 68.056 620.625C68.056 627.083 66.2255 632.313 61.107 632.313H56.4744L61.107 644H75L71.5353 635.259C73.6161 631.253 75 626.167 75 620.63C75 607.724 67.5014 597.26 61.107 597.26V597.255Z" fill="#D2E7FA"/>
</g>
<defs>
<clipPath id="clip0_22_192">
<rect width="44" height="11" fill="white" transform="translate(31 11)"/>
</clipPath>
<clipPath id="clip1_22_192">
<rect width="44" height="44" fill="white" transform="translate(31 68.8214)"/>
</clipPath>
<clipPath id="clip2_22_192">
<rect width="44" height="38.5" fill="white" transform="translate(31 159.643)"/>
</clipPath>
<clipPath id="clip3_22_192">
<rect width="44" height="46.75" fill="white" transform="translate(31 244.964)"/>
</clipPath>
<clipPath id="clip4_22_192">
<rect width="44" height="38.5" fill="white" transform="translate(31 338.536)"/>
</clipPath>
<clipPath id="clip5_22_192">
<rect width="44" height="41.25" fill="white" transform="translate(31 423.857)"/>
</clipPath>
<clipPath id="clip6_22_192">
<rect width="44" height="46.75" fill="white" transform="translate(31 597.25)"/>
</clipPath>
</defs>
</svg>
