<svg width="1880" height="182" viewBox="0 0 1880 182" fill="none" xmlns="http://www.w3.org/2000/svg">
<g clip-path="url(#clip0_1_147)">
<path d="M116.39 106.03C116.39 89.22 97.67 87.38 93.58 87.18C92.95 87.15 92.31 87.1 91.68 87.03L61.5 83.68C59.47 83.31 57.32 82.89 55.04 82.44C45.78 80.59 45.6 73 45.6 73C45.6 62.57 56.1599 58.84 69.2 58.84C82.24 58.84 92.8 62.57 92.8 73L92.8 82.44L116.4 73L116.4 44.68L98.75 51.74C90.66 47.5 80.3899 44.68 69.2 44.68C43.14 44.68 22.0099 59.96 22.0099 73C22.0099 89.81 40.7299 91.65 44.8199 91.85C45.4499 91.88 46.09 91.93 46.72 92L76.9 95.35C78.93 95.72 81.08 96.13 83.36 96.59C92.62 98.44 92.8 106.03 92.8 106.03C92.8 116.46 82.2399 120.19 69.1999 120.19C56.1599 120.19 45.6 116.46 45.6 106.03L45.6 96.59L22 106.03L22 134.34L39.65 127.28C47.74 131.52 58.01 134.34 69.19 134.34C95.25 134.34 116.38 119.06 116.38 106.03L116.39 106.03Z" fill="#D2E7FA"/>
</g>
<g clip-path="url(#clip1_1_147)">
<path d="M369.647 133.74L369.647 117L311.367 117L314.517 96.93L365.967 96.93L365.967 81.49L314.517 81.49L311.367 61.43L369.047 61.43L369.047 44.68L289.487 44.68L296.377 89.21L289.487 133.74L369.647 133.74Z" fill="#D2E7FA"/>
</g>
<g clip-path="url(#clip2_1_147)">
<path d="M605.204 133.75L628.834 133.75L601.054 99.3C604.484 98.73 607.654 97.78 610.544 96.4C615.454 94.07 619.294 90.84 622.064 86.72C624.834 82.6 626.224 77.81 626.224 72.35C626.224 66.89 624.834 61.98 622.064 57.86C619.294 53.74 615.454 50.52 610.544 48.18C605.634 45.85 599.934 44.68 593.444 44.68L542.734 44.68L542.734 133.75L562.924 133.75L562.924 99.91L578.394 99.91L605.204 133.75ZM562.924 84.23L562.924 60.6L591.064 60.6C595.574 60.6 599.154 61.63 601.814 63.69C604.464 65.75 605.794 68.64 605.794 72.36C605.794 76.08 604.464 78.99 601.814 81.09C599.164 83.19 595.584 84.24 591.064 84.24L562.924 84.24L562.924 84.23Z" fill="#D2E7FA"/>
</g>
<g clip-path="url(#clip3_1_147)">
<path d="M882.081 133.74L882.081 117L823.801 117L826.951 96.93L878.401 96.93L878.401 81.49L826.951 81.49L823.801 61.43L881.481 61.43L881.481 44.68L801.921 44.68L808.811 89.21L801.921 133.74L882.081 133.74Z" fill="#D2E7FA"/>
</g>
<g clip-path="url(#clip4_1_147)">
<path d="M1097.45 133.74C1107.82 133.74 1116.9 131.88 1124.7 128.16C1132.5 124.44 1138.57 119.24 1142.93 112.54C1147.28 105.85 1149.46 98.07 1149.46 89.21C1149.46 80.35 1147.28 72.47 1142.93 65.82C1138.58 59.17 1132.5 53.99 1124.7 50.26C1116.9 46.54 1107.82 44.68 1097.45 44.68L1055.17 44.68L1055.17 133.74L1097.45 133.74ZM1075.24 115.93L1075.24 62.49L1098.99 62.49C1105.01 62.49 1110.29 63.6 1114.84 65.82C1119.39 68.04 1122.89 71.15 1125.35 75.14C1127.8 79.14 1129.03 83.83 1129.03 89.21C1129.03 94.59 1127.8 99.18 1125.35 103.22C1122.9 107.26 1119.39 110.39 1114.84 112.6C1110.29 114.82 1105 115.93 1098.99 115.93L1075.24 115.93Z" fill="#D2E7FA"/>
</g>
<path d="M1402.12 44.68L1322.55 44.68L1329.44 89.21L1322.55 133.74L1402.71 133.74L1402.71 117L1344.43 117L1347.58 96.93L1399.03 96.93L1399.03 81.49L1347.58 81.49L1344.43 61.43L1402.12 61.43L1402.12 44.68Z" fill="#D2E7FA"/>
<g clip-path="url(#clip5_1_147)">
<path d="M1582.4 57.41C1578.96 61.53 1577.23 66.52 1577.23 72.37C1577.23 79.81 1579.82 85.61 1585.01 89.77C1590.19 93.93 1598.57 96.64 1610.13 97.9L1628.06 99.92C1634.39 100.63 1638.73 101.76 1641.06 103.3C1643.39 104.84 1644.56 107.04 1644.56 109.89C1644.56 113.53 1642.52 116.36 1638.44 118.38C1634.36 120.4 1628.8 121.41 1621.76 121.41C1616.93 121.41 1612.68 120.8 1608.99 119.57C1605.31 118.34 1602.38 116.6 1600.2 114.34C1598.02 112.08 1596.7 109.45 1596.22 106.44L1575.79 106.44C1576.11 112.61 1578.2 118.02 1582.08 122.65C1585.96 127.28 1591.26 130.89 1597.99 133.46C1604.72 136.03 1612.52 137.32 1621.38 137.32C1630.24 137.32 1637.69 136.09 1644.18 133.64C1650.67 131.19 1655.72 127.72 1659.32 123.25C1662.92 118.78 1664.72 113.57 1664.72 107.63C1664.72 102.64 1663.67 98.53 1661.57 95.28C1659.47 92.03 1655.99 89.44 1651.12 87.5C1646.25 85.56 1639.7 84.16 1631.47 83.28L1612.83 81.02C1607.13 80.31 1603.15 79.22 1600.9 77.75C1598.64 76.29 1597.52 74.21 1597.52 71.52C1597.52 68.04 1599.42 65.35 1603.22 63.44C1607.02 61.54 1612.13 60.59 1618.54 60.59C1623.13 60.59 1627.13 61.12 1630.53 62.19C1633.93 63.26 1636.6 64.76 1638.55 66.7C1640.49 68.64 1641.66 70.92 1642.05 73.53L1662.47 73.53C1662.15 67.75 1660.09 62.7 1656.3 58.39C1652.5 54.08 1647.39 50.71 1640.98 48.3C1634.57 45.89 1627.24 44.68 1619.01 44.68C1610.78 44.68 1603.18 45.77 1596.92 47.95C1590.67 50.13 1585.82 53.28 1582.37 57.39L1582.4 57.41Z" fill="#D2E7FA"/>
</g>
<g clip-path="url(#clip6_1_147)">
<path d="M1858 133.74L1858 44.68L1837.81 44.68L1837.81 133.74L1858 133.74Z" fill="#D2E7FA"/>
</g>
<defs>
<clipPath id="clip0_1_147">
<rect width="94.4" height="89.66" fill="white" transform="translate(22 44.68)"/>
</clipPath>
<clipPath id="clip1_1_147">
<rect width="80.16" height="89.06" fill="white" transform="translate(289.487 44.68)"/>
</clipPath>
<clipPath id="clip2_1_147">
<rect width="86.1" height="89.07" fill="white" transform="translate(542.734 44.68)"/>
</clipPath>
<clipPath id="clip3_1_147">
<rect width="80.16" height="89.06" fill="white" transform="translate(801.921 44.68)"/>
</clipPath>
<clipPath id="clip4_1_147">
<rect width="94.29" height="89.06" fill="white" transform="translate(1055.17 44.68)"/>
</clipPath>
<clipPath id="clip5_1_147">
<rect width="88.93" height="92.64" fill="white" transform="translate(1575.79 44.68)"/>
</clipPath>
<clipPath id="clip6_1_147">
<rect width="20.19" height="89.06" fill="white" transform="translate(1837.81 44.68)"/>
</clipPath>
</defs>
</svg>
