<svg width="21" height="30" viewBox="0 0 21 30" fill="none" xmlns="http://www.w3.org/2000/svg">
<rect width="21" height="30" fill="#D2E7FA"/>
<path d="M20.9978 18.8693C20.9978 14.9321 16.8334 14.5011 15.9235 14.4543C15.7834 14.4472 15.641 14.4355 15.5009 14.4191L8.78708 13.6345C8.33549 13.5478 7.8572 13.4495 7.35 13.3441C5.29004 12.9108 5.25 11.1331 5.25 11.1331C5.25 8.69016 7.59914 7.81653 10.5 7.81653C13.4008 7.81653 15.75 8.69016 15.75 11.1331L15.75 13.3441L21 11.1331L21 4.5L17.0736 6.15358C15.2739 5.1605 12.9893 4.5 10.5 4.5C4.70275 4.5 0.00221485 8.07885 0.00221472 11.1331C0.00221454 15.0703 4.16662 15.5012 5.07647 15.5481C5.21662 15.5551 5.359 15.5668 5.49915 15.5832L12.2129 16.3678C12.6645 16.4545 13.1428 16.5505 13.65 16.6583C15.71 17.0916 15.75 18.8693 15.75 18.8693C15.75 21.3122 13.4008 22.1858 10.5 22.1858C7.59914 22.1858 5.25 21.3122 5.25 18.8693L5.25 16.6583L-3.89683e-07 18.8693L-6.79521e-07 25.5L3.92637 23.8464C5.72605 24.8395 8.0107 25.5 10.4978 25.5C16.295 25.5 20.9955 21.9211 20.9955 18.8693L20.9978 18.8693Z" fill="#111E19"/>
</svg>
