<svg width="12" height="12" viewBox="0 0 12 12" fill="none" xmlns="http://www.w3.org/2000/svg">
<path id="Vector" d="M11.6081 8.02677C11.6081 5.96442 9.3056 5.73868 8.80253 5.71414C8.72504 5.71046 8.64633 5.70433 8.56884 5.69574L4.85673 5.28474C4.60704 5.23935 4.34259 5.18782 4.06215 5.13261C2.92318 4.90564 2.90104 3.97446 2.90104 3.97446C2.90104 2.69485 4.19991 2.23723 5.80381 2.23723C7.40772 2.23723 8.7066 2.69485 8.7066 3.97446L8.7066 5.13261L11.6094 3.97446L11.6094 0.5L9.43844 1.36616C8.44338 0.845974 7.18017 0.5 5.80381 0.5C2.59846 0.5 -0.000514112 2.37464 -0.000514182 3.97446C-0.000514272 6.03681 2.30203 6.26255 2.8051 6.28708C2.88258 6.29077 2.96131 6.2969 3.0388 6.30549L6.75091 6.71648C7.0006 6.76188 7.26505 6.81218 7.54549 6.86861C8.68446 7.09558 8.7066 8.02677 8.7066 8.02677C8.7066 9.30638 7.40772 9.764 5.80381 9.764C4.19991 9.764 2.90104 9.30638 2.90104 8.02677L2.90104 6.86861L-0.00173792 8.02677L-0.00173808 11.5L2.16919 10.6338C3.16425 11.154 4.42746 11.5 5.80259 11.5C9.00795 11.5 11.6069 9.62536 11.6069 8.02677L11.6081 8.02677Z" fill="#D2E7FA"/>
</svg>
