<svg width="186" height="38" viewBox="0 0 186 38" fill="none" xmlns="http://www.w3.org/2000/svg">
<g clip-path="url(#clip0_10092_424)">
<path d="M27.9982 21.948C27.9982 18.9482 24.627 18.6199 23.8905 18.5842C23.777 18.5789 23.6618 18.5699 23.5483 18.5574L18.1134 17.9596C17.7478 17.8936 17.3606 17.8186 16.95 17.7383C15.2824 17.4082 15.25 16.0538 15.25 16.0538C15.25 14.1925 17.1517 13.5269 19.5 13.5269C21.8483 13.5269 23.75 14.1925 23.75 16.0538L23.75 17.7383L28 16.0538L28 11L24.8215 12.2599C23.3646 11.5032 21.5151 11 19.5 11C14.807 11 11.0018 13.7267 11.0018 16.0538C11.0018 19.0535 14.373 19.3819 15.1095 19.4176C15.223 19.4229 15.3382 19.4319 15.4517 19.4443L20.8866 20.0422C21.2522 20.1082 21.6394 20.1814 22.05 20.2634C23.7176 20.5936 23.75 21.948 23.75 21.948C23.75 23.8093 21.8483 24.4749 19.5 24.4749C17.1517 24.4749 15.25 23.8093 15.25 21.948L15.25 20.2634L11 21.948L11 27L14.1785 25.7401C15.6354 26.4968 17.4849 27 19.4982 27C24.1912 27 27.9964 24.2733 27.9964 21.948L27.9982 21.948Z" fill="#D2E7FA"/>
</g>
<g clip-path="url(#clip1_10092_424)">
<path d="M51.1426 27L51.1426 23.9926L40.9639 23.9926L41.5141 20.3869L50.4999 20.3869L50.4999 17.6131L41.5141 17.6131L40.9639 14.0092L51.0378 14.0092L51.0378 11L37.1426 11L38.3459 19L37.1426 27L51.1426 27Z" fill="#D2E7FA"/>
</g>
<g clip-path="url(#clip2_10092_424)">
<path d="M71.1684 27L75.2852 27L70.4454 20.8116C71.043 20.7092 71.5953 20.5386 72.0987 20.2907C72.9541 19.8721 73.6231 19.2919 74.1057 18.5518C74.5883 17.8117 74.8304 16.9513 74.8304 15.9705C74.8304 14.9897 74.5883 14.1077 74.1057 13.3676C73.6231 12.6275 72.9541 12.0491 72.0987 11.6287C71.2433 11.2102 70.2503 11 69.1196 11L60.2852 11L60.2852 27L63.8026 27L63.8026 20.9212L66.4977 20.9212L71.1684 27ZM63.8026 18.1045L63.8026 13.8598L68.705 13.8598C69.4907 13.8598 70.1144 14.0448 70.5778 14.4148C71.0395 14.7849 71.2712 15.304 71.2712 15.9723C71.2712 16.6405 71.0395 17.1632 70.5778 17.5405C70.1162 17.9177 69.4925 18.1063 68.705 18.1063L63.8026 18.1063L63.8026 18.1045Z" fill="#D2E7FA"/>
</g>
<path d="M98.3247 11L84.4277 11L85.6311 19L84.4277 27L98.4277 27L98.4277 23.9926L88.2491 23.9926L88.7992 20.3869L97.785 20.3869L97.785 17.6131L88.7992 17.6131L88.2491 14.0092L98.3247 14.0092L98.3247 11Z" fill="#D2E7FA"/>
<g clip-path="url(#clip3_10092_424)">
<path d="M115.195 27C117.065 27 118.702 26.6658 120.108 25.9975C121.514 25.3292 122.609 24.395 123.395 23.1913C124.179 21.9894 124.572 20.5917 124.572 19C124.572 17.4083 124.179 15.9926 123.395 14.7979C122.611 13.6032 121.514 12.6726 120.108 12.0025C118.702 11.3342 117.065 11 115.195 11L107.572 11L107.572 27L115.195 27ZM111.191 23.8004L111.191 14.1996L115.473 14.1996C116.558 14.1996 117.51 14.3991 118.33 14.7979C119.151 15.1967 119.782 15.7554 120.225 16.4723C120.667 17.1909 120.889 18.0335 120.889 19C120.889 19.9665 120.667 20.7912 120.225 21.517C119.784 22.2428 119.151 22.8051 118.33 23.2021C117.51 23.6009 116.556 23.8004 115.473 23.8004L111.191 23.8004Z" fill="#D2E7FA"/>
</g>
<g clip-path="url(#clip4_10092_424)">
<path d="M147.715 27L147.715 23.9926L137.536 23.9926L138.086 20.3869L147.072 20.3869L147.072 17.6131L138.086 17.6131L137.536 14.0092L147.61 14.0092L147.61 11L133.715 11L134.918 19L133.715 27L147.715 27Z" fill="#D2E7FA"/>
</g>
<g clip-path="url(#clip5_10092_424)">
<path d="M158.047 13.1986C157.428 13.9102 157.117 14.772 157.117 15.7824C157.117 17.0674 157.582 18.0691 158.516 18.7876C159.448 19.506 160.956 19.9741 163.036 20.1917L166.262 20.5406C167.401 20.6632 168.181 20.8584 168.601 21.1244C169.02 21.3903 169.23 21.7703 169.23 22.2625C169.23 22.8912 168.863 23.38 168.129 23.7288C167.395 24.0777 166.395 24.2522 165.128 24.2522C164.259 24.2522 163.495 24.1468 162.831 23.9344C162.169 23.7219 161.641 23.4214 161.249 23.0311C160.857 22.6408 160.619 22.1865 160.533 21.6667L156.857 21.6667C156.915 22.7323 157.291 23.6667 157.989 24.4663C158.687 25.266 159.641 25.8895 160.852 26.3333C162.062 26.7772 163.466 27 165.06 27C166.654 27 167.994 26.7876 169.162 26.3644C170.33 25.9413 171.238 25.342 171.886 24.5699C172.534 23.7979 172.857 22.8981 172.857 21.8722C172.857 21.0104 172.669 20.3005 172.291 19.7392C171.913 19.1779 171.287 18.7306 170.411 18.3955C169.534 18.0604 168.356 17.8187 166.875 17.6667L163.522 17.2763C162.496 17.1537 161.78 16.9655 161.375 16.7116C160.969 16.4594 160.767 16.1002 160.767 15.6356C160.767 15.0345 161.109 14.5699 161.793 14.2401C162.476 13.9119 163.396 13.7478 164.549 13.7478C165.375 13.7478 166.094 13.8394 166.706 14.0242C167.318 14.209 167.798 14.468 168.149 14.8031C168.498 15.1382 168.709 15.532 168.779 15.9827L172.453 15.9827C172.395 14.9845 172.024 14.1123 171.343 13.3679C170.659 12.6235 169.739 12.0415 168.586 11.6252C167.433 11.209 166.114 11 164.633 11C163.153 11 161.785 11.1883 160.659 11.5648C159.535 11.9413 158.662 12.4853 158.041 13.1952L158.047 13.1986Z" fill="#D2E7FA"/>
</g>
<g clip-path="url(#clip6_10092_424)">
<path d="M186 27L186 11L182 11L182 27L186 27Z" fill="#D2E7FA"/>
</g>
<defs>
<clipPath id="clip0_10092_424">
<rect width="17" height="16" fill="white" transform="translate(11 11)"/>
</clipPath>
<clipPath id="clip1_10092_424">
<rect width="14" height="16" fill="white" transform="translate(37.1426 11)"/>
</clipPath>
<clipPath id="clip2_10092_424">
<rect width="15" height="16" fill="white" transform="translate(60.2852 11)"/>
</clipPath>
<clipPath id="clip3_10092_424">
<rect width="17" height="16" fill="white" transform="translate(107.572 11)"/>
</clipPath>
<clipPath id="clip4_10092_424">
<rect width="14" height="16" fill="white" transform="translate(133.715 11)"/>
</clipPath>
<clipPath id="clip5_10092_424">
<rect width="16" height="16" fill="white" transform="translate(156.857 11)"/>
</clipPath>
<clipPath id="clip6_10092_424">
<rect width="4" height="16" fill="white" transform="translate(182 11)"/>
</clipPath>
</defs>
</svg>
