<svg width="1200" height="920" viewBox="0 0 1200 920" fill="none" xmlns="http://www.w3.org/2000/svg">
<path opacity="0.33" d="M299.5 550.021L299.5 668.994C299.5 735.342 333.189 780.389 387.607 808.82C441.991 837.233 517.085 849.06 600 849.06C682.914 849.06 758.008 837.233 812.392 808.82C866.81 780.389 900.5 735.342 900.5 668.994L900.5 668.982L900 668.994C900.5 668.982 900.5 668.982 900.5 668.981L900.5 668.977L900.499 668.962L900.498 668.908C900.496 668.86 900.494 668.789 900.49 668.696C900.481 668.51 900.468 668.234 900.445 667.876C900.399 667.158 900.316 666.105 900.169 664.758C899.875 662.065 899.323 658.196 898.292 653.482C896.23 644.054 892.25 631.24 884.577 617.69C869.222 590.573 839.102 560.553 780.099 548.793C751.112 542.959 723.779 537.759 697.971 533.067L697.953 533.063L697.936 533.062L314.292 490.579C306.273 489.69 298.126 489.056 290.108 488.675M299.5 550.021L909.915 429.953L909.891 430.452C901.873 430.071 893.727 429.436 885.708 428.548L502.064 386.065L502.046 386.063L502.029 386.06C476.22 381.368 448.886 376.041 419.903 370.334L419.902 370.334C360.898 358.574 330.778 328.554 315.423 301.437C307.75 287.887 303.77 275.073 301.708 265.645C300.677 260.931 300.125 257.062 299.831 254.369C299.684 253.022 299.601 251.969 299.555 251.251C299.532 250.892 299.518 250.617 299.51 250.431C299.506 250.338 299.504 250.267 299.502 250.219L299.5 250.165L299.5 250.15L299.5 250.146C299.5 250.146 299.5 250.145 299.564 250.144L299.5 250.145L299.5 250.133C299.5 183.785 333.189 138.737 387.607 110.307C441.991 81.894 517.085 70.0663 600 70.0663C682.914 70.0664 758.008 81.894 812.392 110.307C866.81 138.737 900.5 183.785 900.5 250.133L900.5 369.106M299.5 550.021L299.5 549.483M299.5 550.021L299.5 549.483M290.108 488.675C290.108 488.675 290.108 488.675 290.108 488.675L290.084 489.174L290.108 488.675ZM290.108 488.675C264.135 487.408 191.728 480.944 125.831 448.194C59.9602 415.457 0.626444 356.478 0.626449 250.133C0.626453 167.709 67.5962 78.0573 176.105 8.97684C284.583 -60.0841 434.458 -108.5 600 -108.5C742.164 -108.5 872.636 -72.759 975.404 -19.0274L975.608 -18.9209L975.821 -19.0061L1199.5 -108.262M1199.5 -108.262L1199.5 249.794M1199.5 -108.262L1199.5 -108.8L502.119 385.568C476.314 380.876 448.983 375.55 420 369.844C302.288 346.383 300 250.133 300 250.133C300 117.867 434.237 70.5663 600 70.5663C765.762 70.5664 900 117.867 900 250.133L900 369.305L900.5 369.106M1199.5 -108.262L1200 -108.462L1200 250.133M1199.5 249.794L900.5 369.106M1199.5 249.794L1199.81 249.668L1200 250.133M1199.5 249.794L1199.5 250.133L1200 250.133M900.5 369.106L900.5 369.644L1200 250.133M1199.87 668.494L1199.75 668.494L1199.37 668.494C1199.37 668.661 1199.37 668.827 1199.37 668.994L1199.87 668.494ZM1199.87 668.494C1199.87 668.661 1199.87 668.827 1199.87 668.994L1199.87 668.494ZM299.5 549.483L300 549.283L299.5 549.483ZM0.185269 669.459L0.499966 669.333L0.499966 668.994L-3.40072e-05 668.994L0.185269 669.459ZM0.49995 1027.26L-4.96763e-05 1027.46L-4.96998e-05 1028L0.49995 1027.8L0.49995 1027.26ZM697.881 533.559C723.686 538.251 751.017 543.45 780 549.283L697.881 533.559Z" stroke="#D2E7FA"/>
</svg>
